<svg
	version="1.1"
	xmlns="http://www.w3.org/2000/svg"
	x="0px"
	y="0px"
	width="36px"
	height="36px"
	viewBox="0 0 384 376.5"
>
	<path
		d="M162,0.6c16.8,0.8,33.7,1.6,50.5,2.5c15.4,0.8,27.1,9.8,29.6,23.4c1.2,6.7,1.7,13.6,2.3,20.5c2.1,24.9,2.4,49.9,1.5,74.9

c-0.1,3,0.5,4,3.7,4c33.9-0.4,67.7,0.8,101.5,3.1c16,1.1,27.8,12.7,29.3,28.7c1.2,12.7,2.3,25.4,2.9,38.1c0,0.6-0.1,1.3,0.7,1.5

c0,0.7,0,1.5,0,2.2c-0.5,0.5-0.3,1.1-0.4,1.7c0,0.5,0,0.9,0,1.4c0,0.5,0,0.9,0,1.4c0,0.5,0,0.9,0,1.4c0,0.5,0,0.9,0,1.4

c0,0.6-0.1,1.2,0.4,1.7c0,1,0,2,0,3c-0.8,2.2-0.2,4.5-0.4,6.7c0.2,2-0.4,4.1,0.4,6.1c0,2.2,0,4.5,0,6.7c-0.6,1.5-0.6,3,0,4.5

c0,1.7,0,3.5,0,5.2c-0.7,0.7-0.3,1.6-0.4,2.4c0,0.5,0,1,0,1.5c0,0.7,0,1.4,0,2.1c0,0.7,0,1.4,0,2.1c0,0.5,0,1,0,1.5

c0.1,0.8-0.3,1.7,0.4,2.4c0,1,0,2,0,3c-1.7,3.6-0.9,7.5-1.3,11.2c-0.5,4.7-2.4,7.1-6,6.9c-3.6-0.2-5.6-2.9-5.2-7.6

c1.9-28,1.7-55.9-0.2-83.9c-0.6-8.5-1.4-16.9-2.3-25.4c-1-8.9-8.5-16.1-17.5-16.7c-34.4-2.4-68.9-3.5-103.4-3.3c-2.6,0-3,1-3.2,3.2

c-0.7,8.6-1.2,17.2-2.5,25.7c-2.1,13.9-13.6,23.7-27.6,24.6c-23.8,1.5-47.7,2.7-71.5,2.9c-2.5,0-3,0.8-3.1,3.1

c-1.6,32.5-0.5,64.9,3,97.3c1.1,10.5,8.4,17.4,19,18.1c32.7,2.1,65.4,3.5,98.1,3.1c8.7-0.1,15.2,3.2,20.3,10.3

c11,15.1,25.1,27,39.8,38.4c1.9,1.5,4,1.9,6.3,0.7c2.4-1.3,3.2-3.3,3.2-5.9c0-8.6,0-17.2,0-25.9c0-12,7.7-20,19.6-20.7

c11.3-0.6,18.4-7.5,19.6-18.7c0.6-5.9,2.9-8.6,6.6-8.1c3.8,0.5,5.1,3.2,4.6,9.1c-1.5,16.6-13.1,27.9-29.8,29

c-6.6,0.4-9.3,3.4-9.3,10c0,8.6,0.1,17.2,0,25.9c-0.1,8.6-5.1,14.7-13.3,16.7c-2,0.8-4.1-0.3-6.1,0.7c-0.2,0-0.5,0-0.7,0

c-11.6-5.2-20.2-14.3-29.5-22.5c-7.8-7-15-14.7-21-23.4c-2.1-3.1-5-4.3-8.6-4.3c-18.7,0.1-37.5-0.1-56.2-0.9

c-16.2-0.7-32.5-0.9-48.6-3c-13.3-1.8-23.6-13.3-25-26.6c-3.1-28.7-4.3-57.6-3.6-86.4c0.1-4.4,0.3-8.7,0.6-13.1

c0.1-2-0.3-3.2-2.5-2.8c-0.1,0-0.2,0-0.4,0c-15.9,0-12.3-1.1-20.9,9.7c-1.6,2.1-3.3,4.1-5.2,5.9c-2.3,2.3-5.5,2.4-7.8,0.5

c-2.3-2-2.7-5.1-0.7-7.7c3.6-4.6,7.2-9.3,11-13.7c3.8-4.2,8.8-6,14.4-6c23.1,0.1,46.2-0.3,69.3-1.5c9.4-0.5,18.7-0.9,28.1-1.6

c9.3-0.7,16.2-7.4,17.2-16.9c3.9-36.6,4.7-73.3,1.8-110c-0.5-6.3-1.1-12.7-1.6-19c-0.9-11.4-7.5-18.1-18.9-18.8

c-18-1.1-35.9-2-53.9-2.5c-37.2-1.2-74.5-0.3-111.7,1.7c-5.7,0.3-11.5,0.5-17.2,1.3c-8.2,1.1-14.3,7.5-15.2,15.7

c-4.3,38.4-4.9,76.8-1.7,115.2c0.5,5.6,1,11.2,1.6,16.8c1.1,9.2,7.9,15.8,17,16.5c14.2,1.2,20.5,8.1,20.5,22.2c0,7.2,0,14.5,0,21.7

c0,2.8,0.2,5.3,3.1,6.6c2.9,1.3,5-0.2,7.1-1.9c4.1-3.4,8.3-6.8,12.5-10.2c3.4-2.8,6.6-2.9,8.9-0.2c2.3,2.7,1.9,5.8-1.6,8.7

c-4.8,4-9.6,8-14.5,11.8c-5.4,4.2-11.5,4.8-17.6,1.8c-6-3-9-8.1-9-14.8c-0.1-8.4,0-16.7,0-25.1c0-6.1-2.7-9-8.7-9.3

c-16-1-27-11.5-28.9-27.6c-1.3-11.2-2-22.4-2.8-33.6c-0.1-0.9,0.6-2.1-0.8-2.6c0-1.2,0-2.5,0-3.7c0.7-0.7,0.3-1.6,0.4-2.4

c0-0.7,0-1.4,0-2c0-0.5,0-1,0-1.5c0-0.5,0-1,0-1.5c-0.1-1,0.3-2.1-0.4-3c0-1.7,0-3.5,0-5.2c0.6-2,0.6-4,0-6c0-2.7,0-5.5,0-8.2

c0.6-2.2,0.6-4.5,0-6.7c0-1.7,0-3.5,0-5.2c0.5-0.5,0.3-1.1,0.4-1.7c0-0.5,0-0.9,0-1.4c0-0.5,0-0.9,0-1.4c0-0.5,0-1,0-1.4

c0-0.5,0-0.9,0-1.4c0-0.5,0-0.9,0-1.4c0-0.6,0.1-1.2-0.4-1.7c0-1,0-2,0-3c0.7-3.9,0.6-7.9,0.7-11.9c0.2-8.5,0.7-16.9,1.9-25.4

C4.9,13.2,17,2.6,34.4,1.9c16.1-0.7,32.1-1.3,48.2-1.5c0.5,0,1-0.1,1.4-0.4c0.7,0,1.5,0,2.2,0c0.7,0.7,1.7,0.3,2.5,0.4

c0.7,0,1.4,0,2.1,0c0.9,0,1.8,0,2.7,0c0.7,0,1.4,0,2.1,0c0.8-0.1,1.8,0.3,2.5-0.4c1.5,0,3,0,4.5,0c1.6,0.8,3.2,0.2,4.9,0.4

c2.1,0,4.3,0,6.4,0c2.4,0,4.8,0,7.3,0c1.3,0,2.7,0,4,0c2.2,0,4.4,0,6.6,0c2.2,0,4.3,0,6.5,0c1.9-0.2,3.8,0.4,5.6-0.4

c1.2,0,2.5,0,3.7,0c0.7,0.7,1.6,0.3,2.4,0.4c1-0.1,2,0.3,2.9-0.4c1,0,2,0,3,0C157.9,0.9,160.1-0.1,162,0.6z"
	/>

	<path
		d="M123.2,146.9c-20.7-1.1-36.2-10.4-45.4-29.4c-1.9-3.9-1-7.2,2.1-8.6c3.1-1.4,6.1,0,8,3.9c7.2,14.5,19,22.5,35.1,22.6

c16.3,0,28.2-7.9,35.4-22.6c1.9-3.9,4.9-5.3,8.1-3.8c3.1,1.5,4,4.7,2.1,8.7C159.4,136.3,144,145.7,123.2,146.9z"
	/>

	<path
		d="M96.2,73c-0.1,5.7-1.2,11.2-4.7,15.8c-4.6,6.1-11,6-15.6,0c-6.2-8.2-6.3-23.9-0.2-32.2c4.7-6.5,11.4-6.5,16,0

C95.2,61.6,96.2,67.2,96.2,73z"
	/>

	<path
		d="M150,72.6c0.2-5.7,1.2-11.2,4.6-16c4.6-6.5,11.4-6.4,16,0c6,8.2,5.9,23.7,0,31.9c-4.7,6.4-11.4,6.4-16,0

C151.2,83.8,150.3,78.3,150,72.6z"
	/>

	<path
		d="M322.7,251.8c-0.5-1.2-0.7-2,0.4-3.2c7-8,6.9-15.9,0-23.7c-0.9-1-1.2-1.6-0.5-2.8c5.5-10.8-2.2-24.4-16.4-24

c-6.6,0.2-13.2,0-20.5,0c3-6.4,5.9-12.3,8.4-18.4c4.3-10.1,0-21.5-9.6-26.1c-9.9-4.7-21.3-1-26.6,8.9c-1.8,3.4-3.4,6.9-5,10.4

c-2.7,6.1-6.8,11-12.6,14.4c-4.3,2.6-7.6,6-10.1,10.3c-0.5,0.8-0.6,2-2.1,1.6c-6.8-1.7-13.7-0.7-20.5-0.8

c-9.9-0.1-15.4,5.7-15.4,15.6c0,21.6,0,43.2,0,64.9c0,10.7,5.6,16.3,16.5,16.3c5.5,0,11.5,1.2,16.4-0.5c6.2-2.2,10.6,1.9,16,2.1

c1,0,2,0.1,3,0.2c19.9,0,39.7,0.1,59.6,0c12.6-0.1,20.2-11.6,15.4-23.2c-0.7-1.7-0.4-2.5,0.7-3.8

C324.5,264.8,325.5,258.6,322.7,251.8z M226.1,280.1c0,2.8-1.3,4.1-4.1,4c-4.6-0.1-9.2-0.1-13.9,0c-3.5,0.1-4.9-1.2-4.9-4.8

c0.1-10.9,0.1-21.7,0.1-32.6c0-10.6,0-21.2,0-31.9c0-4.6,0.5-5,4.9-5.1c4.6,0,9.2,0.1,13.9,0c2.8-0.1,4.1,1.1,4.1,4

C226,235.9,226,258,226.1,280.1z M311.7,242.1c-1.2,0.1-2.5,0-3.7,0.1c-3.4,0.2-5.6,2.1-5.8,5.1c-0.2,3.5,1.7,5.3,4.9,6

c0.6,0.1,1.3,0,1.9,0.2c2.7,0.8,4.1,2.7,3.9,5.6c-0.2,2.7-1.8,4.3-4.4,4.8c-1.3,0.2-2.7,0-4.1,0.1c-3.6,0.2-5.9,2.1-6.1,5.3

c-0.2,3.2,1.7,5.3,5.4,6c0.5,0.1,1,0,1.5,0.2c2.6,1,4.2,2.7,3.9,5.6c-0.3,2.8-2,4.6-4.9,4.7c-4,0.2-8,0.1-12,0.1

c-15.1,0-30.2,0-45.4,0c-1.4,0-2.8,0-4.1-0.1c-5-0.4-5.3-0.8-5.3-5.7c0-11,0-22,0-33c0-10.9,0.1-21.7,0-32.6

c-0.1-8,2.9-13.9,9.8-18.1c6.9-4.2,11.9-10.2,15.4-17.4c1.7-3.6,3.3-7.2,5.1-10.8c2.4-4.7,7.2-6.4,11.7-4.4c4.5,2,6.5,7.1,4.3,12

c-3.5,7.8-7.2,15.6-10.9,23.4c-3.2,6.8-1,10.3,6.5,10.3c9.1,0,18.2,0,27.4,0c2.9,0,5.2,0.9,6.2,3.8c1.1,3.4-0.9,6.1-4.8,6.9

c-4.3,0.9-5.9,2.7-5.7,6c0.2,3.4,2.5,5.2,6.9,5.3c0.9,0,1.8,0,2.6,0c3.2,0.3,5.2,2.1,5.2,5.3C316.9,239.9,314.8,241.8,311.7,242.1z"
	/>
</svg>
