<svg
	version="1.1"
	xmlns="http://www.w3.org/2000/svg"
	x="0px"
	y="0px"
	viewBox="0 0 550.1 504"
>
	<g>
		<linearGradient
			id="SVGID_1_"
			gradientUnits="userSpaceOnUse"
			x1="18.0613"
			y1="1484.9462"
			x2="541.2013"
			y2="1484.9462"
			gradientTransform="matrix(1 0 0 -1 8.410366e-06 1732.8107)"
		>
			<stop offset="0" stop-color="#0CC1C7" />
			<stop offset="1" stop-color="#CF7AFE" />
		</linearGradient>
		<path
			fill="url(#SVGID_1_)"
			d="M119.4,45.7c0.1,2.7,0.1,5.3,0,8c-0.1,7-0.4,14.1-1,21.1c-0.7,9.9-1.9,19.7-3.4,29.5
c-1.8,11.3-4.2,22.6-7.4,33.6s-7.5,22.5-12.9,33.1c-3.2,6.1-6.9,12-10.4,17.9c-4.1,6.9-8.2,13.7-12.3,20.6
c-7.7,13.1-15.2,26.3-22.5,39.6c-6.7,12.3-13.1,24.7-19.1,37.3c-5.5,11.5-10.5,23.1-15,35c-4,10.7-7.5,21.5-10.2,32.6
c-2.4,10-4.2,20.1-4.8,30.4c-0.6,9.3-0.3,18.7,1.3,27.9s4.3,17.5,8.2,25.6s9.5,16.3,15.8,23.3s13.1,13.1,20.8,18.2
c6.8,4.5,14.1,8.1,21.8,10.8c7.7,2.7,15.8,4.4,23.9,5.1s17,0.7,25.5-0.3c8.9-1,17.8-2.8,26.4-5.4c9.3-2.7,18.3-6.2,27-10.2
c9.3-4.3,18.3-9.3,27-14.8c9.2-5.8,18-12.3,26.5-19.2c8.9-7.2,17.3-15,25.3-23.1c8.4-8.6,16.4-17.6,23.8-27
c7.7-9.7,15-19.9,21.7-30.4c7.3-11.4,13.9-23.1,19.9-35.2s11.7-24.9,16-37.9c3.4-10,6.1-20.2,7.5-30.6c1.1-7.9,1.4-15.9,0.4-23.8
c-0.8-6.2-2.4-12.3-5.1-17.9c-2.3-4.7-5.4-9-9.2-12.5c-3.4-3.2-7.4-5.8-11.7-7.7c-4.1-1.8-8.4-3-12.8-3.6
c-4.1-0.6-8.3-0.6-12.4-0.1s-7.9,1.6-11.6,3.2c-6.6,2.8-12.9,6.2-18.6,10.6c-6.1,4.7-11.4,10.5-15.9,16.8
c-5.6,8-9.9,16.8-13.5,25.8c-4.9,12.2-8.5,25-11.6,37.8c-3.3,13.7-6.2,27.5-8.4,41.5c-1.4,9.3-2.6,18.7-3,28.1
c-0.2,5-0.4,10.3,0.6,15.3c0.2,0.9,0.8,4.5,2.4,3.4c1-0.7,1.9-1.9,2.6-2.9c1.6-1.9,3.1-3.9,4.6-5.8c4.7-6.1,9.1-12.4,13.5-18.7
c5.7-8.1,11.2-16.4,16.5-24.7c5.6-8.8,11.1-17.6,16.3-26.7c4.6-8,9-16.2,12.7-24.7c2-4.5,3.5-9.1,5.4-13.6
c1.7-4.1,3.6-8.8,6.8-11.9c1.2-1.2,3-2.1,4.2-0.3c1.4,2.1,1.2,5.3,1,7.7c-0.5,7.3-3.2,14-6.4,20.6c-2.1,4.2-4.1,8.4-6.2,12.6
c-3,5.9-6.1,11.8-9.4,17.6c-4,7.2-8.3,14.3-12.8,21.3c-5.1,8-10.6,15.8-16.3,23.4c-6.4,8.4-13.1,16.5-20.3,24.3
c-7.6,8.3-15.8,16.2-24.3,23.6c-9.1,7.9-18.7,15.1-28.8,21.7c-5.3,3.4-10.6,6.7-16.1,9.7s-11.1,6-16.9,8.3
c-9.4,3.8-19.7,6.2-29.9,5.5c-8.4-0.5-16.6-3.2-23.5-8S69.2,425.5,65.6,418c-4.2-8.5-6.2-17.9-6.7-27.2c-0.6-11,1-22.1,4-32.8
c3.5-12.3,8.9-24,15.5-34.9c3.5-5.8,6.9-11.5,10.4-17.3c4.2-7.1,8.4-14.2,12.6-21.3c4.7-8.1,9.4-16.2,13.9-24.3
c5-8.9,9.9-17.8,14.8-26.8s9.9-18.7,14.7-28.2s9.6-19.3,14.1-29c4.4-9.6,8.7-19.2,12.8-29c3.8-9.3,7.4-18.6,10.7-28.1
c3-8.7,5.7-17.4,7.9-26.3c2-7.9,3.6-15.8,4.4-23.9c0.8-6.8,1-13.8,0.3-20.6c-0.9-8.5-3.7-17-7.7-24.6c-3.9-7.5-9.3-14.3-16.5-18.7
c-5.8-3.5-12.5-5.3-19.3-4.8s-12.7,3-17.8,7c-5.4,4.3-9.6,10.1-11.9,16.5C119,30.6,118.4,38.3,119.4,45.7L119.4,45.7z"
		/>

		<linearGradient
			id="SVGID_2_"
			gradientUnits="userSpaceOnUse"
			x1="26.1513"
			y1="1522.75"
			x2="536.0913"
			y2="1522.75"
			gradientTransform="matrix(1 0 0 -1 8.410366e-06 1732.8107)"
		>
			<stop offset="0" stop-color="#0CC1C7" />
			<stop offset="1" stop-color="#CF7AFE" />
		</linearGradient>
		<path
			fill="url(#SVGID_2_)"
			d="M531.5,307.5c-3.4-4.6-6.5-9.5-9.5-14.4c-4.3-6.9-8.4-13.9-12.5-20.9c-4.8-8.3-9.5-16.6-14.1-25
c-4.9-8.9-9.7-17.7-14.4-26.7c-4.5-8.5-8.9-17-13.2-25.5c-3.7-7.3-7.3-14.6-10.7-22.1c-2.4-5.2-4.8-10.4-6.7-15.8
c-4.4-12.3-7.3-25.4-8.3-38.5c-0.3-4.2-0.6-8.7,0.4-12.9c0.4-1.8,1.7-4.4,3.7-2.4c1.1,1.1,1.7,2.8,2.2,4.2c0.8,2.4,1.4,4.9,1.9,7.3
c1.5,6.8,2.6,13.8,4.1,20.6c1.1,5.1,2.4,10.1,4.1,15.1c1.6,4.7,3.5,9.3,5.5,13.9c4.3,9.9,9.1,19.6,13.9,29.3
c4.2,8.3,8.5,16.4,12.5,24.8c1.3,2.6,2.6,5.3,3.7,8.1c0.5,1.4,2,8.1,3.5,7.2c1-0.6,1.1-3,1.2-4c0.1-1.2,0.1-2.4,0.2-3.6
c0.1-2.9,0.3-5.8,0.4-8.7c0.5-7.9,0.9-15.9,1.4-23.8c0.5-8.7,1.1-17.4,1.5-26.2c0.7-13.8,1.1-27.6-0.2-41.3
c-1.3-14.3-4.5-28.4-9.6-41.9c-3.7-9.8-9.4-18.6-18-24.8c-7.2-5.1-15.9-8-24.7-8.7s-16.9,0.8-24.6,4.1c-6.6,2.9-12.1,7.4-17.2,12.5
c-4.2,4.2-7.9,8.8-10.5,14.2c-3,6.3-4.5,13.2-5.2,20.1c-1,10.2-0.3,20.6,0.7,30.8c1,9.9,2.1,20,4.6,29.7c1.8,6.9,4.1,13.6,6.7,20.2
c3,7.8,6.4,15.4,10,22.9c3.9,8.3,8.1,16.4,12.4,24.4c4.5,8.4,9.1,16.8,13.9,25c4.8,8.3,9.6,16.5,14.6,24.7
c4.7,7.8,9.5,15.5,14.3,23.1c4.4,6.9,8.8,13.8,13.3,20.7c3.7,5.7,7.5,11.4,11.3,17.1c2.8,4.2,5.6,8.4,8.5,12.6
c1.6,2.3,3.2,4.6,4.8,6.9c1.8,2.6,4.2,4.6,7.1,6.2c3.7,2.1,8,3.5,12.3,3.6c5.2,0.1,10-2,13.7-5.5c3.8-3.6,6.9-8.4,8.5-13.4
c1.3-4.2,1.3-8.5,0.3-12.8c-1.2-4.9-3.6-9.4-6.2-13.6C539.6,318.4,535.6,312.9,531.5,307.5z"
		/>

		<linearGradient
			id="SVGID_3_"
			gradientUnits="userSpaceOnUse"
			x1="26.3413"
			y1="1339.0453"
			x2="536.0113"
			y2="1339.0453"
			gradientTransform="matrix(1 0 0 -1 8.410366e-06 1732.8107)"
		>
			<stop offset="0" stop-color="#0CC1C7" />
			<stop offset="1" stop-color="#CF7AFE" />
		</linearGradient>
		<path
			fill="url(#SVGID_3_)"
			d="M437.6,440.9c15.5-18.7,27.5-40.1,36.9-62.4c2.4-5.6,4.5-11.3,6.6-17c1-2.8,2-5.7,2.9-8.6
c0.5-1.4,0.9-2.9,1.4-4.3c0.2-0.6,0.5-1.2,0.6-1.8c0.1-0.5,0.1-0.4-0.2-0.8c-0.2-0.3-0.4-0.6-0.6-0.9c-5.8-8.7-11.5-17.5-17.1-26.3
c-7.4-11.6-14.7-23.4-21.8-35.2c-2.7,21.9-6.5,43.7-13.1,64.7s-15.9,40.4-30.3,56.5c-7.4,8.3-16,15.4-25,21.9
c-8.3,6-17.1,11.3-26.4,15.6c-15.1,7-32.2,11.4-48.9,8.9c-15.3-2.3-28.7-10.6-38.2-22.8c-1.3-1.7-2.5-3.4-3.7-5.1
c-4.5,5.1-9.2,10-14,14.9c-4.1,4.2-8.3,8.3-12.6,12.3c-3.8,3.5-7.7,6.9-12,9.8c-0.6,0.4-0.6,0.2-0.5,0.6c0.1,0.3,0.4,0.6,0.5,0.8
c0.7,1,1.4,2.1,2.1,3c2.7,3.6,5.8,7.1,9.1,10.3c4.8,4.7,10.1,8.9,15.8,12.5c7.2,4.6,14.9,8.3,23,11c9.9,3.3,20.3,5.1,30.7,5.6
c13.1,0.6,26.2-0.9,38.9-3.7c16.2-3.6,32-9.4,46.5-17.5c15.1-8.5,28.8-19.4,40.6-32C432,447.5,434.9,444.3,437.6,440.9L437.6,440.9
z"
		/>
	</g>
</svg>
