                <svg
                  version="1.1"
                  xmlns="http://www.w3.org/2000/svg"
                  x="0px"
                  y="0px"
                  width="36px"
                  height="36px"
                  viewBox="0 0 409.6 409.6"
                >
                  <path
                    fill="#b5b5b5"
                    d="M389.1,343.8c-30.5-30.4-60.9-60.9-91.4-91.4c-5.2-5.2-4.8-3.2-1.1-9.3c21-34.9,28.2-72.5,20.6-112.4
	c-7.7-40.6-28.4-73.6-61.5-98.7C236.3,17.4,214.5,8,190.7,3c-5.7-1.2-11.5-1.1-17.1-3c-1.3,0-2.7,0-4,0c-2.1,0.7-4.3,0.7-6.4,0
	c-2.1,0-4.3,0-6.4,0c-2.1,0.7-4.3,0.7-6.4,0c-1.6,0-3.2,0-4.8,0c-4.7,1.1-9.5,0.6-14.2,1.5c-15.3,2.9-29.9,7.8-43.8,14.8
	C68.6,26,52,38.9,38,55.2c-14.5,16.9-25,36-31.8,57.2c-3.4,10.8-5.8,21.8-6.3,33.2c0,1.6,0,3.2,0,4.8c0.7,2.1,0.7,4.3,0,6.4
	c0,2.1,0,4.3,0,6.4c0.7,2.1,0.7,4.3,0,6.4c0,1.9,0,3.7,0,5.6c0.9,0.4,0.8,1.3,0.9,2.1c1.6,12.6,4.3,24.9,8.7,36.7
	c16.9,45.1,47.7,76.8,92.3,94.9c26.3,10.7,53.8,13.6,81.8,9.4c21.5-3.3,41.7-10.5,60.2-22.2c2.9-1.8,4.7-2.4,7.6,0.6
	c33.6,33.9,67.4,67.6,101.1,101.3c1.7,1.7,3.6,3.2,5.3,4.8c3.8,3.6,8.9,4.5,13.2,6.9c4,0,8,0,12,0c2.6-1.1,5.4-0.8,8-2
	c10-4.9,16.3-12.6,18.4-23.6c0-4,0-8,0-12C406.5,359.9,397.4,352.2,389.1,343.8z M160.6,304c-80-0.2-144.3-63.7-144.5-143.7
	C15.9,80.7,79.6,16.4,159.6,16.1c79.7-0.3,143.9,63.5,144.4,143.8C304.4,238.7,239.6,303.7,160.6,304z M285.6,305.2
	c-1.3,1.2-2.2,1-3.3-0.2c-6.4-6.4-12.7-12.9-19.2-19.2c-1.6-1.6-1.3-2.5,0.2-3.8c6.8-5.8,13.2-12,18.9-18.9c1.2-1.4,2.1-1.6,3.5-0.2
	c6.4,6.6,13,13,19.5,19.5c0.4,0.4,0.8,1,1.2,1.5c-0.4,0.6-0.7,1-1.1,1.4C299,292.3,292.4,298.9,285.6,305.2z M384.6,392
	c-5.7,2.8-11.4,2.3-16.5-1.7c-1.3-1-2.5-2-3.6-3.1c-22.2-22.1-44.3-44.3-66.5-66.4c-2.2-2.2-2.4-3.5,0.1-5.5
	c6.4-5.2,12.2-11.2,17.5-17.5c1.7-2.1,2.8-2.3,4.9-0.2c22.4,22.6,45,45.1,67.6,67.6c3.5,3.4,5.6,7.4,5.7,12.6
	C393.5,384.2,390.4,389.1,384.6,392z"
                  />
                  <g>
                    <path
                      fill="#cf7afe"
                      d="M160.2,32.1C89.4,32,32.4,88.6,32.1,159.6c-0.2,71,56.6,127.7,127.7,128.4c70.8-0.4,127.8-56.6,128.1-127.6
		C288.1,89.4,231.3,32.2,160.2,32.1z M160.1,272C98.5,272.1,47.9,221.5,48,159.9C48.1,98.4,98.5,48.1,159.9,48
		C221.5,48,272.1,98.5,272,160.1C271.9,221.6,221.6,272,160.1,272z"
                    />
                    <path
                      fill="#cf7afe"
                      d="M244.8,136c4.8-1.7,6.4-6.3,4-12.3c-3.8-9.3-8.9-17.8-15.5-25.5C215,76.9,191.6,65.8,163.7,64
		c-0.9,0-1.9,0-2.8,0c-4.9,0.1-8.8,3.5-8.9,7.9c-0.1,4.3,3.7,7.8,8.7,8.1c3.2,0.2,6.4,0.4,9.5,0.8c19.4,2.5,35.6,11.2,48.9,25.5
		c6.7,7.2,11.5,15.6,15.5,24.5C236.8,135.8,240.5,137.5,244.8,136z"
                    />
                    <path
                      fill="#cf7afe"
                      d="M248,152.1c-4.1,0-7.9,3.9-7.9,8c0,4.1,3.9,7.9,8,7.9c4.1,0,7.9-3.9,7.9-8C256,155.9,252.1,152,248,152.1z"
                    />
                  </g>
                </svg>
