                <svg
                  version="1.1"
                  xmlns="http://www.w3.org/2000/svg"
                  x="0px"
                  y="0px"
                  width="33px"
                  height="36px"
                  viewBox="0 0 373.4 405.1"
                >
                  <path
                    fill="#cf7afe"
                    d="M193,0c0,11,0,22.1,0.1,33.1c0,2.3-0.6,3.2-3.1,3.2c-9.8,0.3-9.8,0.3-9.8-9.6c0-8.9,0-17.9,0.1-26.8
	C184.6,0,188.8,0,193,0z"
                  />
                  <path
                    fill="#b5b5b5"
                    d="M36.2,170.8c-1.1,1.4-2.7,0.7-4,0.7c-10.7,0.1-21.5,0.1-32.2,0.1c0-4.5,0-9,0-13.4c0.3,0,0.5,0.1,0.8,0.1
	c1.7,2,1.1,4.5,1.2,6.8c0.2,4,0.5,4.5,4.6,4.5c8,0.1,16,0,24,0C32.5,169.7,34.6,169.3,36.2,170.8z"
                  />
                  <path
                    fill="#b5b5b5"
                    d="M372.6,158.3c0.3,0,0.5-0.1,0.8-0.1c0,4.5,0,9,0,13.4c-10.7,0-21.5,0-32.2-0.1c-1.3,0-2.9,0.7-4-0.7
	c1.6-1.5,3.7-1.1,5.6-1.2c8-0.1,16,0,24,0c4.1,0,4.4-0.4,4.6-4.5C371.5,162.8,370.9,160.4,372.6,158.3z"
                  />
                  <path
                    fill="#cf7afe"
                    d="M314.9,45.8c-0.6,0.7-1.1,1.3-1.6,1.9c-7.2,7.3-14.5,14.5-21.7,21.8c-1.6,1.6-2.5,1.5-4.1,0
	c-7.5-7.2-7.5-7.1-0.1-14.5c5.5-5.5,11-10.9,16.4-16.5c1.5-1.5,2.5-1.9,4-0.1c1.7,2,3.7,3.7,5.5,5.6
	C313.8,44.5,314.3,45.1,314.9,45.8z"
                  />
                  <path
                    fill="#cf7afe"
                    d="M67.6,36.6c0.6,0.5,1.1,0.9,1.5,1.3c7.4,7.4,15.5,14.4,22.1,22.5c3.4,4.2-3.6,5.6-5.2,8.7c-1,1.9-2.3,1.8-4,0.1
	C74.9,62,67.6,54.7,60.3,47.5c-1.4-1.3-1.9-2.3-0.2-3.7c2.1-1.8,3.9-3.9,5.9-5.8C66.5,37.5,67,37.1,67.6,36.6z"
                  />
                  <path
                    fill="#cf7afe"
                    d="M36.2,170.8c-10.6,0-21.2-0.1-31.8,0.1c-2.7,0-3.8-0.7-3.6-3.5c0.2-3,0.1-6,0.1-9c10.9,0,21.7,0,32.6-0.1
	c2.1,0,3.1,0.5,3,2.8C36.2,164.3,36.3,167.6,36.2,170.8z"
                  />
                  <path
                    fill="#cf7afe"
                    d="M372.6,158.3c0,3-0.1,6,0.1,9c0.2,2.8-0.9,3.6-3.6,3.5c-10.6-0.1-21.2-0.1-31.8-0.1
	c-0.9-12.6-0.9-12.6,11.4-12.6C356.6,158.2,364.6,158.3,372.6,158.3z"
                  />
                  <path
                    fill="#b5b5b5"
                    d="M306.6,156.4c-5.8-29.4-21.1-53.7-44.8-71.8c-31.1-23.8-66.2-31.2-104.4-22.1c-25.3,6.1-46.5,19.3-63.4,39.3
	c-23.4,27.7-33.2,59.6-28.4,95.7C70,230.5,85.9,257.2,112,278c17.3,13.8,24.7,32.2,24.8,54c0,1.5-0.1,2.7-1.9,3.4
	c-8,3.2-12,9.2-12.7,17.8c-1,12.7,7.7,22.5,18.8,22.5c3.4,0,3.8,0.9,3.2,4.1c-2.1,11.1,2.9,19.7,13.2,24.1c0.6,0.2,1,0.7,1.6,1.1
	c18.2,0,36.4,0,54.6,0c0.3-0.2,0.6-0.6,0.9-0.7c10.8-2.4,16.7-12.8,14.6-24.9c-0.5-3,0.1-3.6,2.9-3.7c9.6-0.3,16.9-6.4,18.7-15.1
	c2.3-11.1-2-20.8-11.2-24.8c-2.2-0.9-3-2-2.9-4.3c0.2-21.5,8.4-39.3,24.9-53.3c12.8-10.9,24.1-23,32.3-37.9
	C308.2,213.8,312.4,185.7,306.6,156.4z M215.7,387.9c-1,2.6-3.3,3.9-6.3,3.8c-7.5-0.1-15,0-22.5,0c-7.4,0-14.8,0-22.1,0
	c-4.9,0-7.6-2.6-7.8-7.4c-0.2-5.1,2.7-8.3,7.8-8.4c5.9-0.1,11.9,0,17.8,0c8.6,0,17.1,0.1,25.7,0
	C216.2,375.8,217.7,382.7,215.7,387.9z M238.1,354.5c0.1,5.6-2.4,8.5-7.9,8.5c-29,0.1-58,0.1-87,0c-5.5,0-8.1-3-7.9-8.6
	c0.1-5.1,2.5-7.3,8.1-7.3c14.5,0,29,0,43.5,0c14.4,0,28.7,0,43.1,0C235.7,347.2,238,349.4,238.1,354.5z M178.8,297.1
	c0-11.1,0.1-22.1-0.1-33.2c0-3,0.9-4,3.8-3.7c3.9,0.4,8.9-1.6,11.4,0.9c2.3,2.3,0.7,7.3,0.7,11.1c0.1,19.2-0.1,38.5,0.1,57.7
	c0,3.4-1,4.4-4.2,4.1c-2.5-0.2-5-0.3-7.5,0c-3.7,0.5-4.3-1.1-4.3-4.5C178.9,318.7,178.8,307.9,178.8,297.1z M268.3,253.7
	c-6.8,7.8-15.3,13.7-22.3,21.2c-14.3,15.3-22,33.2-22.1,54.2c0,3.7-0.7,5.4-4.7,4.8c-3.6-0.5-8.3,1.6-10.6-0.9
	c-2.1-2.3-0.6-6.8-0.6-10.3c-0.1-8.6,0-17.1,0-25.7c0-11.1,0.1-22.2-0.1-33.2c0-2.7,0.7-3.7,3.6-3.6c4.3,0.1,8.7,0.3,13-0.5
	c11.5-2,19.1-10.6,19.3-22.4c0.3-13.7-5.1-22.4-16.5-25.5c-18.1-4.9-33.2,6-32.8,24.3c0.1,3.5,1.6,8-0.8,10.2
	c-2.2,2-6.5,0.5-9.9,0.6c-5.1,0.1-5,0-5.1-5.1c-0.1-4.3,0.4-8.7-0.6-13c-2.9-12.6-14.1-19.3-26.8-18c-10.1,1-17.9,5.9-20.6,15.8
	c-5.1,18.3,4.3,33.4,23.9,33.7c3.4,0,7.7-1.4,10,0.6c2.5,2.3,0.8,6.7,0.8,10.2c0.1,19.6,0,39.3,0.1,58.9c0,3.2-0.9,4.2-4,3.9
	c-2.7-0.2-5.6-0.3-8.3,0c-3.1,0.3-3.8-1-3.7-3.8c0.3-11.1-2-21.7-6.3-31.9c-5.2-12.4-13.4-22.5-23.8-30.9
	c-20.7-16.7-34.4-38-39.6-64.2c-6.9-35,1.2-66.3,24.4-93.5c17.5-20.5,39.8-32.9,66.3-36.6c33-4.6,62.7,3.8,88,25.9
	c21.8,19.1,34.2,43.1,36.7,72C298,202.4,289.1,229.9,268.3,253.7z M207.9,238.9c0-1.4,0-2.9,0-4.3c0.1-5.8,3.2-9.8,8.4-10.6
	c7.1-1.1,12.5,1.4,14.1,7c2.6,8.8-2.3,17-10.9,16c-1.2-0.1-2.4,0-3.5,0C207.9,246.9,207.9,246.9,207.9,238.9z M165.5,238.6
	c0,8.4,0,8.4-8.5,8.3c-3,0-6.1,0.6-8.9-0.8c-4.7-2.5-6.9-8.4-5.4-14.4c1.2-4.8,5.2-7.7,10.5-7.8
	C162.6,223.8,165.5,227.2,165.5,238.6z"
                  />
                </svg>
