                <svg
                  version="1.1"
                  xmlns="http://www.w3.org/2000/svg"
                  x="0px"
                  y="0px"
                  width="36px"
                  height="37px"
                  viewBox="0 0 369 384"
                >
                  <g>
                    <path
                      fill="#b5b5b5"
                      d="M158.1,198.4c-9-6.3-25.2-6.3-34,0.2c-2.5,1.9-3.4,4.4-1.9,7.2c1.4,2.7,3.8,3.4,6.7,2.6
		c0.9-0.3,1.8-0.8,2.7-1.2c6.3-3.2,12.7-3.2,19,0c0.9,0.4,1.8,0.9,2.7,1.2c4,1.3,7.4-1.2,7.3-5.6C160.8,201,159.7,199.6,158.1,198.4
		z"
                    />
                    <path
                      fill="#b5b5b5"
                      d="M187.3,171.8c0-1.1,0.1-2.3,0-3.3c-0.4-3.1-3.3-5.7-6-5.6c-2.9,0.2-5.1,2.7-5.1,6.2c0,2,0,4,0,6
		c0,3.2,1.8,4.8,4.7,5.4c2.9,0.6,4.6-1.1,5.9-3.5C187.7,175.3,187.3,173.5,187.3,171.8z"
                    />
                    <path
                      fill="#b5b5b5"
                      d="M97.4,162.9c-3.6,0.1-5.3,2.9-5.3,8.6c0,1.1,0,2.2,0,3.3c-0.1,3.3,1.9,5.1,4.9,5.5c2.9,0.4,4.9-1.3,5.8-4.1
		c0.5-1.4,0.5-2.9,0.5-4.4C103.4,166.1,101.2,162.7,97.4,162.9z"
                    />
                    <path
                      fill="#b5b5b5"
                      d="M175.4,251.5c16.6-10.6,29.7-24.3,37.7-42.5c1-2.3,2.4-2.7,4.6-2.7c4.2,0,8.5,0.6,12.7-0.5
		c16.8-4.6,23.3-28.6,11.4-41.6c-1.1-1.2-2.6-2-2.6-3.9c0.1-3.7,0-7.5,0-11.2c0-0.7,0-1.4,0.6-1.5V135c-0.6-0.9-0.7-2.3-0.6-4.7
		c0.3-13-1.7-25.6-6.1-37.8c-0.3-0.9-0.5-1.7-0.6-2.6c-5-13.2-11.2-22.2-13.6-25.4c-0.4-0.4-0.7-0.9-1.1-1.4
		c-8.6-11.2-19.3-19.9-31.6-26.6c-13.4-7.4-27.8-11.3-43.2-12.3c-13.9-0.9-27.7-1.3-41.5,0.4C76.2,28,56,40.3,41.4,61.4
		c-1.5,2.1-3.3,3.6-5.7,4.6c-19,7.9-30.5,25.4-30.8,46c-0.1,11.5,1.2,22.9,0.8,34.4c-0.1,4.1-0.3,8.2,0.5,12.3c0.3,1.5,0,3-1,4.2
		c-2.9,3.1-4.4,6.9-5.2,11c0,0.5,0,1,0,1.5c0,0,0,0,0,0c1.2,4,1.2,8,0,12c0,0,0,0,0,0c0,0.3,0,0.5,0,0.7c0.9,2.4,0.8,5.1,2.3,7.4
		c4.6,7.3,11.1,11.3,19.8,11.6c3.5,0.1,7,0.2,10.5,0c3.2-0.2,5.1,1.1,6.4,4c2.9,6.8,6.8,13.1,11.6,18.7c2.1,2.4,1.8,4.2,0,6.5
		c-6.6,9.1-13,18.3-19.8,27.3c-2.9,3.9-4.6,8.2-5.7,12.9c-2.9,11.9-6.1,23.7-9.2,35.5C11,331,5.9,350,1.1,369
		c-1.9,7.4,1,12.7,7.9,15c72,0,144,0,216,0c6.5-2.8,10.7-7.3,10.3-14.8c-0.5-9.8-1.3-19.6-2.2-29.5c-0.6-6.9-2.4-13.5-5.6-19.7
		c-1.8-3.5-4.8-4.7-7.7-3.2c-3,1.5-3.9,4.4-2.4,8c1.6,3.9,3.4,7.8,3.8,12.1c1,10.7,1.9,21.3,2.8,32c0.2,2.7-1.2,3.8-3.8,3.8
		c-7.1-0.1-14.2-0.1-21.4,0c-2.4,0-3.3-0.7-3.2-3.2c0.2-6.2,0.1-12.5,0-18.7c0-4.2-2.1-6.7-5.5-6.7c-3.6,0-5.7,2.5-5.8,6.8
		c0,6.1-0.1,12.2,0,18.4c0.1,2.6-0.7,3.4-3.3,3.4c-38.9-0.1-77.7-0.1-116.6,0c-2.4,0-3.3-0.3-2.5-3.1c4.4-16.2,8.7-32.5,12.7-48.8
		c0.7-3,2-3.7,4.8-3.7c8,0.2,16.2,1.1,23.9-0.3c8.3-1.5,16.5-2.2,24.9-2.3c14-0.2,26.5-5.3,37.2-14.6c1.4-1.2,2.9-1.8,4.8-1.5
		c10.8,1.8,21.8,2.6,31.5,8.7c2.9,1.9,6.1,0.8,7.7-2c1.7-2.8,0.9-5.6-2.2-7.7c-4.5-3-9.4-5.2-14.6-6.5c-7.1-1.9-14.5-2.6-21.7-3.8
		c-4.3-0.7-7.4-2.9-8.9-7.1c-0.7-2-0.7-3.4,1.6-4.9c6.7-4.2,10-10.3,8.7-18.3C172.1,254.2,173.3,252.9,175.4,251.5z M236.2,179.6
		c0.1,5.2-0.2,10.3-5.1,13.6c-3.6,2.5-7.7,1.9-11.6,1.7c-2-0.1-1.1-1.8-0.9-2.9c0.4-2.2,0.9-4.4,1.1-6.6c0.3-3.6,1.1-7.2,0.7-10.3
		c0-1.3,0-2,0-2.8c0-5.3,0.6-5.8,5.7-4.8C232.5,168.7,236,173,236.2,179.6z M30.1,195.1c-1.2-0.1-2.5,0-3.7,0
		c-9.2,0-13.1-2.2-14.6-8.9c-0.9-3.9-1.1-8,0.6-11.8c2.2-5,6.4-7,11.7-7c7.5-0.1,7.5-0.1,7.5,7.4c0,5.6,0.4,11.2,1.8,16.7
		C34.1,194.8,32.9,195.3,30.1,195.1z M155.5,293.8c-8.5,6.2-18,9.3-29.1,9.6c4.3-7.4,5.1-15.2,4.7-23.1c-0.1-1.7,0.8-2.1,2.3-2.1
		c5,0,10,0,15,0c1.3,0,2.1,0.4,2.2,1.8c0.4,4.3,2.4,7.8,5.1,11C156.7,292.2,156.8,292.9,155.5,293.8z M160.4,263.5
		c-1.7,2.7-4.4,3.5-7.4,3.5c-7.4,0-14.7,0-22.1,0c-7,0-10.8,3.8-11,10.8c-0.1,4.1,0.4,8.2-0.4,12.3c-1.9,9.5-9.3,15.8-19,15.8
		c-7.5,0.1-15,0-22.5,0c-7.7,0-11.5,2.7-13.5,10.3c-4.6,17.3-9.1,34.7-13.5,52.1c-0.8,3.4-2.2,4.6-5.8,4.5
		c-9.7-0.3-19.5-0.2-29.2-0.1c-2.4,0-3.3-0.3-2.5-3.1c8.2-31.2,16.3-62.4,24.4-93.7c0.4-1.5,1.1-2.8,2-4
		c13.7-18.9,27.3-37.8,41-56.7c3.4-4.7,8.4-5.2,12.1-1.4c2.7,2.7,3,5.7,0.6,9.2c-3.2,4.8-6.6,9.4-9.8,14.2c-3.8,5.6-2,12,3.8,14.3
		c1.5,0.6,2.9,0.5,4.4,0.5c10,0,20,0,30,0c10.4,0,20.7,0,31.1,0c3.2,0,5.9,1.1,7.5,4C162.1,258.6,161.9,261.1,160.4,263.5z
		 M167.2,243.5c-1.2,0.8-2.2,0.9-3.4,0.1c-3.9-2.3-8.2-2.8-12.6-2.8c-17.4,0.1-34.7,0-52.1,0c-1.1,0-2.2,0-3.9,0
		c2.7-3.9,5-7.2,7.3-10.6c6.3-9.3,4.7-20.2-3.8-26.2c-9.2-6.5-20.1-4.6-26.9,4.8c-3.5,4.8-7,9.6-10.7,14.7
		c-8.7-10.3-14.5-21.6-16.9-34.5c-3-15.7-1.1-31.3,2-46.8c1.2-5.8-0.6-8.9-5.2-8.9c-3.2,0-4.8,1.9-5.4,4.7c-1,5-1.9,10-2.6,15.1
		c-0.3,2.2-0.9,3.1-3.2,3c-3.2-0.1-6.5,0.1-9.7,0.3c-1.3,0.1-1.9-0.4-2-1.6c-0.1-0.5-0.1-1-0.1-1.5c-0.3-13.9-0.8-27.7-0.9-41.6
		c-0.1-16.4,9.9-30.2,25.6-35.3c2.9-0.9,5-2.4,6.6-5C61.7,51.8,79.4,40.1,102.2,37c13.2-1.8,26.6-1.1,40-0.5
		c14.1,0.7,27.3,4.5,39.5,11.6c26.2,15.3,41.6,38.2,45.6,68.4c1.7,12.4,0.4,25,0.8,37.4c0.1,1.7-0.3,2.3-2.3,2.2c-6-0.2-6-0.1-7-5.7
		c-0.8-4.3-1.5-8.6-2.5-12.8c-3-11.6-12.7-19.2-24.6-20c-20.6-1.3-40.4-6.1-59.3-14.4c-3.3-1.4-6.5-3.1-10.3-3
		c-3.9,0.2-7,1.6-9.5,4.5c-3.8,4.3-6.9,5-12.3,2.7c-6-2.6-10.3-7.3-14.9-11.8c-1.9-1.8-3.5-3.9-5.4-5.7c-6-5.7-15.7-5.4-21.1,0.9
		c-5.3,6.2-10,12.8-13.5,20.2c-1.7,3.5-0.9,6.6,2,8c3,1.5,6,0.5,7.8-2.8c3.2-5.8,6.6-11.5,11-16.5c2.9-3.3,4.7-3.5,7.5-0.1
		c4.5,5.4,9.6,10.1,15.3,14.3c6.5,4.7,13.5,7.5,21.7,5.3c3.6-1,6.8-2.7,9.1-5.6c1.7-2.1,3.2-2.3,5.4-1.2c15.7,7,31.9,12.1,49,14.5
		c5.8,0.8,11.6,1.4,17.4,2c6.4,0.7,11.6,3.7,13.2,10c4.6,18.3,6.8,36.9,1.7,55.4C200.4,216.2,186.2,231.8,167.2,243.5z"
                    />
                  </g>
                  <g>
                    <path
                      fill="#cf7afe"
                      d="M301.3,78.7c12.5-2.8,21.3-15.8,19.6-28.1C319,37.1,307.3,26.3,292,27.7c-12.3,1.1-23,12.4-23.2,25.3
		c-0.1,3.2,2.3,6,5.3,6.2c2.8,0.2,5.2-2,5.8-5.2c0.2-1,0.4-2,0.5-2.9c1.3-7.3,7-12.1,14.4-12.1c7.4,0,13.5,5,14.8,12.3
		c1.2,6.8-3,13.9-9.7,16.3c-2.4,0.9-4.9,0.8-7.4,0.8c-4.6,0.1-6.7,2.1-6.7,6.6c-0.1,2.9,0,5.7,0,8.6c0,3.1-0.1,6.2,0,9.4
		c0.1,3.5,2.4,5.9,5.4,6c3.2,0.1,5.6-2.4,5.8-6c0.1-2.9,0.3-5.8,0-8.6C296.4,80.7,297.8,79.5,301.3,78.7z"
                    />
                    <path
                      fill="#cf7afe"
                      d="M291.1,107.4c-3.4,0.1-5.5,2.8-5.4,6.7c0.1,3.9,2,6,5.5,6c3.4,0,5.7-2.5,5.7-6.4
		C296.9,110,294.5,107.3,291.1,107.4z"
                    />
                    <path
                      fill="#cf7afe"
                      d="M368.7,19.2c-2.5-10.6-8.5-17.6-20-19.2C312.5,0,276.2,0,240,0c-14,4.2-19.8,12-19.8,26.9
		c0,11.6,0,23.2,0,34.9c0,1.1,0.4,2.4-0.5,3.5c-0.3-0.2-0.6-0.4-0.8-0.6c2.4,3.2,8.6,12.2,13.6,25.4c-0.1-0.8-0.2-1.7-0.2-2.6
		c0-20.6,0.3-41.2-0.1-61.8c-0.2-8.2,6.9-14.6,14.6-14.5c32.1,0.3,64.2,0.1,96.3,0.1c9,0,14.5,5.5,14.6,14.5c0,32.1,0,64.2,0,96.3
		c0,9-5.5,14.5-14.5,14.5c-12.2,0-24.5,0.1-36.7,0c-6.3-0.1-11,2.4-14.7,7.4c-4.1,5.5-8.5,10.9-12.7,16.4c-0.3-0.1-0.5-0.3-0.8-0.4
		c0-2.7,0-5.5,0-8.2c-0.2-8.3-6.7-14.9-15-15c-6-0.1-12,0-18-0.1c-3,0-4.5-0.3-5.3-1.4v12.3c0.2-0.1,0.4-0.1,0.8,0
		c7.3,1,14.7,0.2,22.1,0.5c2.9,0.1,4.2,1.8,4.2,4.6c0,4.5,0,9,0,13.5c0,5.4,2.1,8.9,6,10.2c4.3,1.4,8,0.1,11.4-4.2
		c5.5-7.1,11-14.2,16.5-21.3c1.5-2,3.2-2.8,5.7-2.8c12.6,0.1,25.2,0.1,37.9,0c6.8,0,12.5-2.6,17.5-7.4c3.7-3.6,5.1-8.4,7.2-12.9
		c0-1,0-2,0-3v-102c0-0.7,0-1.5,0-2.2v-1.1H368.7z"
                    />
                  </g>
                </svg>
