<svg
	version="1.1"
	xmlns="http://www.w3.org/2000/svg"
	x="0px"
	y="0px"
	width="36px"
	height="36px"
	viewBox="0 0 409.6 409"
>
	<path
		d="M398.7,193c-4,3-7.1,6.9-10.7,10.2c-1.6,1.5-2.9,3.3-4.9,4.5c-0.7-1.8-0.4-3.3-0.4-4.8c0-36.4,0-72.8,0-109.2

c0-9.1-2.9-11.9-12-12c-11.3-0.1-22.7,0-34,0c-1.3,0-2.6,0.4-3.9-0.4c0.4-1.4,1.6-2.1,2.5-3c8.7-8.8,17.2-17.9,26.4-26.2

c8.2-7.5,9.2-21,0.2-29.4c-5.8-5.5-11.4-11.2-17-16.9c-3.6-3.7-7.8-6-13.1-5.7c-7.2-0.8-12.6,2.2-17.7,7.3

c-23.3,23.6-46.9,47-70.3,70.5c-2.6,2.6-5.4,3.9-9.1,3.9c-58.3-0.1-116.5-0.1-174.8-0.1c-5,0-5.2-0.2-5.2-5.2c0-15.5,0-30.9,0-46.4

c0-1.9,0-3.7-0.2-5.6c-0.9-5.4-3.1-7.4-8.5-7.6c-9.8-0.3-18.7,3-26.5,8.6C8.3,33.6,1.3,44.2,0,58.1c0,88.3,0,176.5,0,264.8

c0.8,5.9,1.3,11.8,4.4,17.2c9.6,16.4,23.6,24.8,42.7,24.8c58,0,115.9,0,173.9,0c1.5,0,3.1-0.5,4.7,0.7c-3.7,3.8-7.3,7.4-10.9,11

c-6.7,6.7-13.5,13.3-20,20.1c-2.2,2.3-3.5,5.1-2.3,8.4c1.2,3.1,3.7,4,6.8,3.9c67.8,0,135.7,0,203.5,0c3.4,0.2,6-0.7,6.9-4.4

c0-69.6,0-139.2,0-208.8C407.4,190.6,403.4,189.6,398.7,193z M315.4,24.8c3.6-3.4,7-7,10.5-10.4c1.3-1.2,2.8-2,4.5-1.9

c2.4,0,4,1.2,5.4,2.7c5.7,5.6,11.4,11.3,16.9,17c3.6,3.7,3.6,6.7,0.1,10.4c-3.1,3.3-6.4,6.4-9.5,9.7c-1.2,1.3-2,1.3-3.2,0

c-8.1-8.2-16.3-16.4-24.6-24.6C314.4,26.6,314.2,25.9,315.4,24.8z M296,44.1c2.7-2.6,5.4-5.2,7.9-7.9c1.5-1.6,2.2-1,3.5,0.2

c8,8,16,16.1,24,24c1.2,1.2,1.7,2,0.2,3.5c-3.2,3.1-6.1,6.4-9.2,9.7c-9.1-9.1-17.7-17.8-26.4-26.4C294.7,46,294.8,45.3,296,44.1z

M397.7,394.2c0,1.9-0.4,2.8-2.4,2.5c-0.1,0-0.3,0-0.4,0c-59.9,0-119.7,0-179.6,0c-0.3,0-0.5-0.1-1.5-0.3c8.6-8.6,16.8-16.8,25-24.9

c11-11,22.1-22.1,33.1-33.1c0.8-0.8,1.7-1.7,2.5-2.6c2.2-2.9,2.1-6-0.3-8.3c-2.2-2.2-5.7-2.2-8.3,0.1c-1.4,1.2-2.7,2.6-4,3.9

c-6.1,6.1-12.3,12.2-18.4,18.4c-1.3,1.3-2.5,2-4.5,2c-64.3-0.1-128.5,0-192.8-0.1c-18.6,0-32.3-13-34-31.4

c-1.3-14.4,11.2-30.3,26.8-34.1c2.5-0.6,5-0.9,7.5-1c4.5-0.2,6.8-2.3,6.9-6.6c0.2-14.1,0.1-28.3,0-42.4c0-4-2.8-6.6-6.1-6.6

c-3.4,0.1-5.8,2.6-5.8,6.7c-0.1,11.2-0.1,22.4,0,33.6c0,2.8-0.7,3.9-3.6,4.4c-9.9,1.8-18.2,6.9-25.8,14.5c0-1.8,0-2.8,0-3.8

c0-72.8,0-145.6,0-218.4c0-17.1,10.1-30.8,25.3-35.3c3.8-1.1,4.1,0.1,4.1,3.3c-0.1,57.7-0.1,115.5,0,173.2c0,1.6,0,3.2,0.2,4.8

c0.5,2.8,2.3,4.5,5.1,4.7c3,0.3,5.3-1.1,6.1-4c0.5-1.8,0.5-3.7,0.5-5.5c0-36.3,0.1-72.5,0-108.8c0-2.9,0.6-3.8,3.7-3.8

c55.7,0.1,111.5,0.1,167.2,0.1c0.9,0,1.8,0.1,2.8,0.2c-0.2,1.7-1.5,2.3-2.4,3.2c-9.3,9.4-18.7,18.7-28,28c-1.1,1.1-2.2,2.3-3,3.7

c-1.3,2.4-0.7,4.8,1.2,6.6c1.8,1.8,4.1,2.4,6.6,1.2c1.6-0.8,2.7-2.1,4-3.3c25.8-25.8,51.7-51.7,77.5-77.5c1-1,1.8-2.3,2.9-3.7

c9.2,9.3,17.8,18,26.5,26.6c1.3,1.3,1.1,2-0.1,3.1c-1.4,1.2-2.7,2.6-4,3.9C269.5,125.9,231,164.4,192.4,203c-1,1-1.9,2.2-3.1,3.6

c-9-9-17.6-17.7-26.3-26.3c-1.6-1.5-0.9-2.2,0.3-3.4c7-6.9,14-13.9,21-20.9c2.1-2.1,3.7-4.3,2.5-7.4c-1.8-4.6-6.7-5.3-10.7-1.3

c-7.8,7.7-15.4,15.6-23.3,23.1c-3.5,3.3-5.8,7-7.3,11.6c-5.5,16.2-11.4,32.3-17,48.5c-0.8,2.3-1.8,3.1-4.2,3

c-5.2-0.2-10.4-0.1-15.6,0c-4.5,0.1-7,2.3-7.1,5.9c-0.1,3.8,2.6,6.1,7.2,6.1c54.5,0,109.1,0,163.6,0c4.7,0,7.5-2.2,7.6-5.9

c0.1-3.8-2.8-6.1-7.8-6.1c-35.3,0-70.7,0-106,0c-3.2,0-6.4,0-9.5,0c-0.1-0.2-0.1-0.4-0.2-0.6c6.2-2.2,12.2-4.9,18.5-6.5

c12.3-3.1,21.7-10,30.5-19.1c36-36.7,72.7-72.9,109-109.3c1.8-1.8,3.7-2.6,6.3-2.6c14.9,0.1,29.9,0.1,44.8,0c2.8,0,3.9,0.5,3.9,3.7

c-0.1,40.7-0.1,81.3,0,122c0,2.5-1.2,3.9-2.7,5.4c-26.9,26.9-53.8,53.7-80.6,80.6c-0.7,0.7-1.3,1.3-2,2c-3.1,3.4-3.3,6.9-0.6,9.5

c2.5,2.3,6.1,1.9,9.2-1.1c21.1-21.1,42.2-42.2,63.4-63.4c13.6-13.6,27.1-27.2,40.7-40.8c1.4,0.7,0.7,1.9,0.7,2.8

c0.1,15.3,0,30.7,0.1,46c0,2.7-0.5,3.8-3.4,3.5c-2.5-0.3-5.1-0.2-7.6,0c-3.9,0.3-6.1,2.7-6,6.2c0.1,3.4,2.4,5.6,6.3,5.8

c2.8,0.1,5.6,0.1,8.4,0c1.7-0.1,2.3,0.5,2.3,2.3c-0.1,4.7-0.1,9.3,0,14c0,1.6-0.6,2.1-2.1,2c-2.8-0.1-5.6-0.1-8.4,0

c-4.1,0.1-6.5,2.5-6.5,6c0,3.5,2.6,5.8,6.6,6c0.3,0,0.5,0,0.8,0c3,0.1,7.1-1,8.9,0.5c2.1,1.8,0.6,6,0.7,9.1c0.1,8.4,0,8.4-8.4,8.5

c-0.9,0-1.9,0-2.8,0.1c-3.4,0.3-5.4,2.1-5.7,5.5c-0.3,3.4,1.7,5.8,5.4,6.2c2.9,0.3,5.9,0.3,8.8,0.2c2.3-0.1,2.9,0.7,2.8,2.9

c-0.2,4.1-0.2,8.3,0,12.4c0.1,2.4-0.8,2.9-3,2.8c-2.5-0.2-5.1-0.2-7.6,0c-4.2,0.3-6.5,2.6-6.5,6.1c0,3.6,2.4,5.6,6.7,5.9

c3.3,0.2,7.7-1.4,9.6,0.6c2.1,2.2,0.6,6.6,0.6,10C397.7,383.8,397.5,389,397.7,394.2z M177.4,212.5c-4.8,1.7-9.9,3.5-14.9,5.4

c-1.2,0.4-2,0.2-2.8-0.7c-0.2-0.2-0.4-0.4-0.6-0.6c-3.1-3.2-6.3-6.5-9.4-9.7c1.9-5.6,3.7-11.2,5.5-16.7

C162.8,197.8,170,205.1,177.4,212.5z"
	/>

	<path
		d="M362.4,288.8c-3.2-1.2-5.6,0.3-7.8,2.5c-21,21-42,42-63,63c-2.4,2.4-3.9,4.9-2.5,8.2c1.4,3.1,4.2,3.6,7.4,3.6

c10.1-0.1,20.2,0,30.4,0c10.5,0,21,0,31.6,0c5.5,0,7.8-2.2,7.8-7.7c0.1-20.8,0-41.6,0-62.3C366.3,292.9,365.6,290.1,362.4,288.8z

M354.2,350.9c0,1.5,0.6,3.2-2.1,3.2c-14-0.1-28.1,0-41.9,0c14.7-14.7,29.3-29.3,44-44c0.6,0.4,0,1.6,0,2.5

C354.2,325.4,354.2,338.1,354.2,350.9z"
	/>
</svg>
