<svg
	version="1.1"
	xmlns="http://www.w3.org/2000/svg"
	x="0px"
	y="0px"
	width="36px"
	height="36px"
	viewBox="0 0 372 372"
>
	<path
		d="M8.2,0C21.5,13.2,34.8,26.3,48,39.5c1,1,1.9,2.3,2.8,3.5c0.4-0.2,0.7-0.4,1.1-0.6c-0.9-4.8-1.8-9.6-2.7-14.3

c-0.3-1.7-0.8-3.4-1-5.1c-0.6-3.7,1.4-6.7,4.8-7.3c3.5-0.6,6.3,1.3,7.1,5.1c2.3,11.7,4.6,23.5,6.8,35.3c2,10.8,0,12.7-10.7,10.7

c-11.5-2.1-23-4.4-34.5-6.7c-4.5-0.9-6.6-3.7-5.7-7.5c0.8-3.5,3.9-5,8.3-4.1c5.9,1.1,11.8,2.2,17.6,3.3c0.2,0,0.5-0.1,1.3-0.2

C28.5,37,14.2,22.6,0,8.2c0-1.5,0-3,0-4.5c0.5-2,1.7-3.3,3.7-3.7C5.2,0,6.7,0,8.2,0z"
	/>

	<path
		d="M372,8.2c-14.6,14.3-29.1,28.5-43.7,42.8c0.2,0.3,0.4,0.6,0.6,1c6.3-1.2,12.6-2.3,18.9-3.5c4.7-0.9,7.8,0.7,8.5,4.3

c0.7,3.8-1.3,6.4-6,7.3c-12.5,2.5-25,4.9-37.5,7.3c-6.1,1.2-9.4-2.1-8.2-8.3c2.4-12.6,4.8-25.2,7.3-37.8c0.8-4.3,3.6-6.3,7.3-5.6

c3.4,0.7,5.2,3.8,4.4,7.8c-1.2,6.3-2.5,12.6-3.9,20c15-14.9,29.5-29.2,43.9-43.5c1.5,0,3,0,4.5,0c2,0.5,3.3,1.7,3.7,3.7

C372,5.2,372,6.7,372,8.2z"
	/>

	<path
		d="M0,363.7c13.3-13.4,26.7-26.9,40.1-40.3c0.9-0.9,2-1.5,3-2.2c-0.2-0.4-0.4-0.7-0.7-1.1c-4.8,0.9-9.6,1.8-14.3,2.7

c-1.7,0.3-3.4,0.8-5.1,1c-3.7,0.6-6.7-1.4-7.3-4.8c-0.6-3.5,1.3-6.3,5.1-7c11.7-2.3,23.5-4.6,35.3-6.8c10.7-2,12.7,0,10.7,10.7

c-2.1,11.5-4.4,23-6.7,34.5c-0.9,4.5-3.7,6.6-7.5,5.7c-3.5-0.8-5-3.9-4.1-8.3c1.2-6.1,2.3-12.2,3.7-19.4

C37,343.5,22.6,357.7,8.2,372c-1.5,0-3,0-4.5,0c-2-0.5-3.3-1.7-3.7-3.7C0,366.7,0,365.2,0,363.7z"
	/>

	<path
		d="M363.7,372c-13.5-13.4-27-26.9-40.6-40.3c-0.9-0.9-1.6-2.3-3.2-2.4c1.3,6.6,2.6,13.1,3.9,19.6c0.7,3.7-1.2,6.8-4.5,7.5

c-3.6,0.7-6.5-1.2-7.3-5.2c-2.5-12.8-5-25.7-7.4-38.6c-1.1-5.8,2.1-9,7.9-8c13,2.4,26,4.9,38.9,7.5c3.7,0.7,5.6,3.7,4.9,7.2

c-0.6,3.3-3.7,5.3-7.4,4.6c-5.5-1-11-2.1-16.5-3.2c-1.2-0.2-2.4-0.6-4.4,0.1c14.8,14.5,29.4,28.8,43.9,43c0,1.5,0,3,0,4.5

c-0.5,2-1.7,3.3-3.7,3.7C366.7,372,365.2,372,363.7,372z"
	/>

	<path
		d="M331.2,198.6c0-9.1-3.6-16.4-10.6-22.1c-4.3-3.5-9.2-6-14.4-7.7c-8.5-2.8-17.3-4.2-26.2-5.5c0.1-0.4,0.2-0.7,0.3-0.8

c13-10.6,17.7-24.7,16.6-40.9c-0.8-12.1-5.7-22.2-17.2-27.4c-12.9-5.8-25.7-5.1-37.7,3c-1.2,0.8-2.1,1.3-3.6,0.4

c-5.9-3.7-12.4-5.7-19.2-7c-5.5-1.1-11-2.1-16.8-3.2c12.6-11.1,17.8-22.9,17.4-39.5c-0.4-18.2-10.8-30.3-28.7-32.5

c-18.8-2.3-35.5,6.6-38.3,27.8c-2.3,17.5,2.7,32.5,16.9,44.4c-12.9,2-25.4,3.7-36.5,10.3c-1.1,0.7-1.8,0.4-2.7-0.3

c-7.4-5.8-16-7.4-25.1-6.7c-13,0.9-22.8,6.8-27.9,19.3c-6.8,16.9-1.2,39.4,12.8,51.3c0.6,0.5,1.7,0.7,1.5,1.9

c-11.2,1.7-22.5,3.3-32.8,8.4c-12.2,6-18.7,15.4-18.4,29.5c0.3,16.9,0.1,33.7,0.1,50.6c0,6.6,1.9,8.4,8.5,8.4

c21.7,0,43.5,0.1,65.2-0.1c2.8,0,3.8,0.6,3.8,3.6c-0.2,13.4-0.1,26.7-0.1,40.1c0,6.4,1.8,8.2,8.3,8.2c39.6,0,79.2,0,118.8,0

c6.7,0,8.5-1.7,8.5-8.4c0-13.2,0.1-26.5-0.1-39.7c0-3.2,1-3.8,4-3.8c21.9,0.1,43.7,0.1,65.6,0.1c5.7,0,7.9-2,7.9-7.5

C331.2,234.6,331.2,216.6,331.2,198.6z M243.6,114c0.8-1.9,1.7-3.6,3.2-5c7.4-7.3,16.2-7.7,25.4-4.9c8.5,2.6,11.9,9.3,12.7,17.6

c0.1,1.4,0,2.7,0,4.1c-0.1,9.3-2.4,17.8-9.1,24.6c-7.5,7.6-17.7,7.5-25.3-0.1C242.2,141.9,238.9,125,243.6,114z M164.2,52.4

c0-14.1,4.5-21.5,13.6-24.3c5.4-1.6,10.8-1.6,16.2,0c6.1,1.8,10.4,5.6,12.1,11.7c3.5,12.9,1.6,24.9-7.6,34.9

c-7.2,7.8-17.7,7.7-25.2,0.1C166.7,68,164.4,59.5,164.2,52.4z M139.8,110.5c-0.8-2.6,0.5-3.1,2-3.8c8.3-4,17.3-5.6,26.3-6.8

c18-2.3,35.9-1.2,53.4,3.6c1,0.3,2,0.5,2.9,0.8c2.5,1.1,5.6,1.7,7.3,3.5c2.2,2.2-0.8,4.9-1.2,7.4c-3.1,18.3,0.8,34.2,15.2,46.7

c0.4,0.3,0.9,0.5,0.7,1.4c-8.6,1.2-17.3,2.6-25.6,5.5c-2,0.7-1.9-0.7-2.2-1.8c-6.7-22.4-32.1-31.8-52-19.3c-7,4.4-11.2,10.9-13,18.9

c-0.5,2.3-1.3,2.6-3.5,1.9c-8.1-2.6-16.4-3.9-25-5.1C141.3,148.5,146,131,139.8,110.5z M201.4,198.9c-8.3,12-22.3,12-30.8,0.2

c-4.6-6.4-6.4-13.7-6.4-18.2c0-20.9,12.7-30.4,29.6-25.4c6.8,2,11.3,6.5,12.9,13.3C209.2,179.6,207.7,189.8,201.4,198.9z

M88.5,115.4c2.6-8.5,9.9-12.7,20.3-12.7c13.2,0,21,7.5,21.6,20.7c0.4,9.1-1.5,17.6-7.3,25c-8,10.2-20.4,10.6-28.5,0.6

C86.7,139,84.9,127.5,88.5,115.4z M118.5,245.7c-0.2,1.9-0.8,2.5-2.7,2.5c-10.7-0.1-21.5-0.1-32.2,0c-2.2,0-2.7-0.7-2.7-2.8

c0.1-11.2,0-22.5,0.1-33.7c0-2.7-0.9-4.9-3.4-6.2c-2.1-1.1-4.1-0.9-6,0.4c-2.1,1.4-2.6,3.5-2.6,5.9c0,11-0.1,22,0.1,33

c0,2.9-0.8,3.7-3.5,3.5c-3.4-0.2-6.7-0.1-10.1,0c-1.8,0.1-2.7-0.4-2.7-2.4c0.1-15.9,0-31.7,0.1-47.6c0-7,4.1-11.5,9.8-14.8

c6.8-3.9,14.4-5.5,22-6.8c19.8-3.4,39.5-2.6,59,2.5c2.3,0.6,4.5,1.5,6.7,2.2c1.4,0.4,2,1.2,2.2,2.7c1.7,12.4,6.7,23.1,17.4,31.2

c-7,0.9-13.2,1.9-19.2,3.4c-1.9,0.5-2.5,0.3-2.3-1.7c0.1-1.9,0.1-3.7,0-5.6c-0.2-3.8-2.7-6.4-6-6.4c-3.4,0-6.3,2.6-5.9,6.3

c1,8-0.8,13.9-8.6,18.2C122.2,232.6,119.4,238.9,118.5,245.7z M241.9,296.6c0,2.9-0.8,3.6-3.5,3.4c-3.1-0.3-6.3-0.3-9.4,0

c-3,0.3-3.4-0.9-3.3-3.5c0.1-10.6,0.1-21.2,0.1-31.9c0-5-2.2-7.9-5.9-7.9c-3.8-0.1-6.1,2.8-6.1,7.8c0,10.6-0.1,21.2,0.1,31.9

c0,2.8-0.4,3.8-3.6,3.7c-8.1-0.3-16.2-0.1-24.4-0.1c-7.9,0-15.7-0.2-23.6,0.1c-3.6,0.2-4.2-1.1-4.1-4.3c0.2-10.2,0.1-20.5,0.1-30.7

c0-5.4-2.1-8.3-5.9-8.3c-3.9-0.1-6.1,2.9-6.1,8.1c0,10.7-0.1,21.5,0,32.2c0,2.2-0.3,3.1-2.8,3c-3.7-0.2-7.5-0.1-11.2,0

c-1.6,0-2.1-0.4-2.1-2.1c0.1-16.2,0-32.5,0.1-48.7c0-5.9,3.4-10,8.2-13.1c7.5-4.9,16.1-6.5,24.7-8c19.7-3.3,39.3-2.3,58.6,2.9

c2.9,0.8,5.7,1.9,8.4,3.1c7.7,3.7,12,9.4,11.8,18.6C241.5,267.4,241.7,282,241.9,296.6z M316.2,248.2c-3.4-0.2-6.8-0.2-10.1,0

c-2.5,0.2-3.1-0.7-3.1-3.1c0.1-10.9,0.1-21.7,0.1-32.6c0-4.8-2.1-7.5-5.8-7.7c-3.8-0.1-6.2,2.8-6.2,7.7c0,10.9-0.1,21.7,0.1,32.6

c0,2.5-0.6,3.1-3.1,3.1c-10.4-0.1-20.7-0.1-31.1,0c-2.2,0-3.1-0.3-3.5-2.9c-1.4-9.3-7.1-15.7-15.1-20.3c-2.2-1.2-3-2.6-2.8-5

c0.2-3,0.1-6,0-9c-0.1-3.6-2.4-6.1-5.7-6.2c-3.3-0.2-6.1,2.4-6.3,6.1c-0.1,2.6,0,5.2,0,8.1c-7.1-1.8-13.9-2.9-20.8-3.8

c0-0.3-0.1-0.6,0-0.7c9.7-7.5,14.8-17.6,16.4-29.6c0.3-2.3,1.4-3.4,3.5-4.2c11.1-3.8,22.5-5.6,34.1-6.1c14.4-0.7,28.7,0.8,42.6,4.6

c4.2,1.1,8.3,2.8,11.9,5.3c5.2,3.5,8,8.4,7.9,14.8c-0.1,15.2-0.1,30.5,0,45.7C319.3,247.4,318.7,248.4,316.2,248.2z"
	/>
</svg>
