<svg
	version="1.1"
	xmlns="http://www.w3.org/2000/svg"
	x="0px"
	y="0px"
	width="36px"
	height="36px"
	viewBox="0 0 511.9 511.9"
>
	<path d="M511.9,138c-1.3-0.7-1.1-1.3,0-2C511.9,136.6,511.9,137.3,511.9,138z" />

	<path d="M122,511.9c0.7-1.3,1.3-1.1,2,0C123.3,511.9,122.7,511.9,122,511.9z" />

	<path d="M136,511.9c0.7-1.1,1.3-1.3,2,0C137.3,511.9,136.6,511.9,136,511.9z" />

	<path
		d="M511.9,117c-1.1-15.2-5-29.6-11.7-43.4c-15.9-32.8-41.1-55-75.2-67.4C415,2.5,404.6,0.8,394,0c-1.3,0-2.7,0-4,0

c-0.7,0.6-1.3,0.6-2,0c-4,0-8,0-12,0c-0.7,0.6-1.3,0.6-2,0c-1.7,0-3.3,0-5,0c-3.9,0.9-7.9,0.5-11.8,1.3

c-24.8,4.9-46.8,15.5-64.9,33.3c-28.3,27.8-56.1,56.1-84.2,84c-14.3,14.2-25.8,30.1-32.3,49.2c-1.5,4.4-4.3,6.6-8.5,8.1

c-17.2,6.2-32.2,15.9-45.1,28.8c-29.3,29.1-58.5,58.3-87.6,87.6C22,304.9,13.2,319.9,7,336.5c-3.8,10.1-6.1,20.7-7,31.4c0,2,0,4,0,6

c0.6,0.7,0.6,1.3,0,2c0,6.7,0,13.3,0,20c1.3,15.2,5.3,29.6,12.1,43.3c15.6,31.6,40.1,53.3,72.9,65.9c10,3.8,20.4,5.7,31,6.8

c2,0,4,0,6,0c0.7-0.6,1.3-0.6,2,0c4,0,8,0,12,0c0.7-0.6,1.3-0.6,2,0c1.3,0,2.7,0,4,0c4.2-0.9,8.6-0.4,12.8-1.3

c24.8-5,46.8-15.5,64.9-33.3c27.3-26.8,54.1-54.3,81.4-81.1c15.7-15.4,28.6-32.5,35.7-53.5c1.1-3.1,3-5,6.1-6

c19.2-6.7,35.6-17.8,49.9-32.3c28.2-28.4,56.6-56.5,84.7-84.9c12.5-12.6,21.2-27.6,27.5-44.2c3.8-10.2,5.9-20.7,7-31.5c0-2,0-4,0-6

c-0.6-0.7-0.6-1.3,0-2C511.9,129.7,511.9,123.3,511.9,117z M175.8,265.4c2.8-2.8,3.3-0.6,4.2,1.3c11.8,26.2,30.4,46.2,55.4,60.3

c3.5,2,7.1,3.7,10.7,5.3c2.5,1.1,2.5,2.1,0.6,3.7c-0.4,0.3-0.7,0.7-1.1,1.1c-26.4,26.4-52.8,52.7-79.1,79.2

c-10.1,10.2-22.4,15.2-37.1,15.7c-20.8-1.3-36.9-10.7-45.2-30.7c-7.9-19.2-5.1-37.8,9.3-52.8C120.4,320.2,148.3,293,175.8,265.4z

M290.6,376.7c-27.2,27.7-54.7,55.2-82.4,82.4c-38,37.3-91.6,43.3-137.1,15.7c-36.2-21.9-56.9-68.1-49.8-110

c4.1-24.1,14.8-44.6,32-61.8c27.1-27.1,54.2-54.2,81.3-81.3c9.8-9.8,21-17.9,34.6-23.9c-1.2,14.6-1,28.6,1.9,42.4

c0.5,2.4-1,3.2-2.3,4.5c-30.8,29.5-60.9,59.7-90.5,90.4c-20.1,20.8-23.8,51.7-11.1,78c12.1,25,39.3,40.7,67.4,38.7

c15.9-1.1,30.4-6.6,41.8-17.8c29.8-29.3,59.7-58.6,88.7-88.8c24.7-25.8,24.5-66.8,0.5-93.1c-10.9-12-18-24.9-17-41.6

c0.9-15.1,3.1-16.4,16.1-9.3c29.6,16.3,49.1,40.7,56,73.9C328.8,314,318.5,348.3,290.6,376.7z M490.6,147

c-4.1,24.1-14.7,44.6-32,61.9c-27.2,27.2-54.4,54.4-81.7,81.6c-9.8,9.8-20.9,17.8-34.3,23.6c0.8-11.9,1.7-23.5-0.9-34.7

c-1.7-7.3,0.5-11.3,5.8-16.4c29.2-28.5,58.5-57,86.4-86.7c19.1-20.2,23-45.1,13.1-71.1c-9.7-25.3-28.7-40.1-55.7-44.2

c-17.7-2.7-34,1.5-48.9,11.4c-5.5,3.7-6.9,9.3-3.8,14.2c3,4.8,8.2,5.8,14,2.9c2.1-1.1,4-2.3,6.1-3.5c21.9-12.3,52.7-4,65.3,17.5

c12.6,21.5,9.7,45.4-7.9,63.1c-23.6,23.8-47.3,47.4-71,71.1c-2.8,2.8-5.8,5.5-8.4,8.5c-2.4,2.8-3.4,2.4-4.9-0.9

c-9.8-22-24.7-39.7-44.4-53.4c-6.6-4.6-13.4-8.6-20.8-11.7c-3-1.2-3.4-2.1-0.9-4.6c9.8-9.5,19.4-19.2,29-29c1.5-1.5,3-3.2,4-5

c2.1-4,1.4-7.9-1.6-11.1c-2.8-3-6.4-4.1-10.5-2.5c-1.2,0.5-2.5,1.1-3.4,2c-14,14.2-29.6,27.1-41.7,43c-19.4,25.6-17.5,62.9,4.2,86.6

c11,12,18.4,25.1,17.4,42c-0.9,15.2-3.2,16.5-16.5,9.1c-29.4-16.4-48.7-40.7-55.6-73.6c-8.1-39,2.1-73.3,30.1-101.7

c27.2-27.7,54.7-55.1,82.3-82.4c38-37.4,92.1-43.4,137.5-15.6C477.1,59.3,497.7,105.3,490.6,147z"
	/>

	<path
		d="M86.4,76.4c3.2,0.2,5.8,1.7,8,3.8c13.4,13.4,26.9,26.8,40.2,40.2c4.9,4.9,5.3,10.9,1.3,15.1c-4.1,4.4-10.3,4.1-15.4-0.9

c-13.5-13.3-26.8-26.8-40.2-40.2c-3.5-3.5-4.9-7.5-2.9-12.2C79.1,78.4,82.4,76.6,86.4,76.4z"
	/>

	<path
		d="M188,65.5c0,9,0,18,0,26.9c0,7.7-3.7,12.4-9.9,12.5C172,105,168,100.3,168,92.7c0-18.6-0.1-37.2,0-55.9

c0-8.8,6.9-14,14-10.8c4.5,2,6,5.9,6,10.6C188,46.2,188,55.9,188,65.5z"
	/>

	<path
		d="M68,188c-9.3,0-18.6,0-27.9,0c-7.2,0-11.9-4-12-9.9c-0.1-5.9,4.6-10,11.8-10.1c18.8-0.1,37.6-0.1,56.4,0

c7.2,0,11.8,4.2,11.7,10.2c-0.1,5.8-4.6,9.7-11.5,9.8C86.9,188,77.4,188,68,188z"
	/>

	<path
		d="M383.2,373.3c3.4,0.2,6,1.8,8.4,4.1c13.4,13.4,26.9,26.8,40.2,40.3c4.9,5,5.1,10.8,0.8,15c-4,4-10,3.9-14.7-0.7

c-13.8-13.5-27.4-27.2-41-40.9c-3.3-3.3-4.7-7.3-2.7-11.8C375.9,375.4,379.2,373.6,383.2,373.3z"
	/>

	<path
		d="M446.7,343c-9.3,0-18.6,0.1-27.9,0c-7.2-0.1-11.8-4.2-11.7-10.1c0.1-5.8,4.6-9.8,11.5-9.8c19-0.1,37.9-0.1,56.9,0

c6.9,0,11.4,4.1,11.5,9.8c0.1,5.9-4.6,10.1-11.8,10.1C465.6,343,456.1,343,446.7,343z"
	/>

	<path
		d="M323,446.7c0-9.3-0.1-18.6,0-27.9c0.1-7.2,4.1-11.9,10-11.8c6,0,9.9,4.7,9.9,11.9c0,18.6,0,37.2,0,55.9

c0,7.3-3.9,11.9-9.8,12.1c-6.1,0.1-10.1-4.7-10.2-12.2C322.9,465.4,323,456,323,446.7z"
	/>

	<path
		d="M328.1,109c-0.1,5.3-4.7,9.8-9.9,9.8c-5.2-0.1-9.8-4.7-9.8-9.9c0-5.5,4.7-10.1,10.3-9.9

C324.1,99.1,328.2,103.5,328.1,109z"
	/>
</svg>
