<svg
	version="1.1"
	xmlns="http://www.w3.org/2000/svg"
	x="0px"
	y="0px"
	width="36px"
	height="36px"
	viewBox="0 0 384 384"
>
	<defs></defs>

	<path
		d="M345,0c6.7,2.8,9.2,7.8,9.1,15c-0.1,25.2,0.3,50.5,0.4,75.7c0.1,10-4.6,14.7-14.6,14.8c-26,0.1-52,0.3-78,0.3

c-9.1,0-14.4-6.7-12.3-15.4c1.4-5.5,5.7-8.6,12.4-8.6c16.5-0.1,33-0.1,49.5-0.2c2,0,3.9,0,6.6,0c-5.8-6.9-11.7-12.5-17.9-17.8

c-95-80.4-242.2-32.4-271.6,88.6c-3,12.2-4.5,24.5-4.7,37.1c-0.1,8.5-2.6,12.7-8.7,14.2c-6.3,1.6-11.3-1-15.3-8c0-4,0-8,0-12

c0.5-0.5,0.3-1.1,0.4-1.7c0-0.6,0-1.2,0-1.8c0-0.6,0.1-1.2-0.4-1.7c0-1,0-2,0-3c1-10.7,2.4-21.2,5.2-31.6

c7.5-28.5,20.6-54.1,39.7-76.5c26.4-31.1,59.6-51.7,99-62.1c10.9-2.9,21.9-4.9,33.2-4.9c0.5,0,1,0,1.4-0.4c1,0,2,0,3,0

c0.6,0.6,1.4,0.3,2.1,0.4c0.6,0,1.2,0.1,1.7-0.4c0.7,0,1.5,0,2.2,0c3,0.6,6,0.6,9,0c0.7,0,1.5,0,2.2,0c0.4,0.5,1,0.4,1.6,0.4

c0.4,0,0.9,0,1.3,0c0.6,0,1.2,0.1,1.6-0.4c0.5,0,1,0,1.5,0c6.6,0.9,13.4,0.7,20,1.9C259,8,289.6,22.3,316.4,44.5

c4.2,3.5,8,7.5,12.1,11.2c0.9-1.4,0.5-2.6,0.5-3.8c0-12.5,0-25,0-37.5c0-2.4,0.3-4.7,1.1-7c1.6-4.2,4.4-6.8,8.9-7.5

C341,0,343,0,345,0z"
	/>

	<path
		d="M39,384c-6.8-2.9-9.2-8-9.2-15.4c0.1-25.1-0.2-50.2-0.4-75.3c-0.1-10.1,4.5-14.7,14.5-14.8c26-0.1,52-0.2,77.9-0.3

c9.1,0,14.5,6.7,12.3,15.3c-1.4,5.5-5.7,8.7-12.4,8.7c-17.6,0.1-35.2,0.1-52.8,0.2c-0.8,0-1.7,0-3.2,0c5.4,6.7,11.2,12.1,17.3,17.2

c32.9,27.5,70.9,41.3,113.8,40.1c78.5-2.2,144.4-58.2,159.9-135c2-10.2,3.1-20.5,3.2-30.9c0.1-8.1,3.1-12.5,9.3-13.7

c6.8-1.3,11.7,1.7,14.7,8.9c0,2.7,0,5.5,0,8.2c-0.7,0.9-0.2,2-0.4,3c0,0.7,0,1.4,0,2.1c0.1,0.8-0.3,1.7,0.4,2.4c0,1,0,2,0,3

c-1,6.7-1.1,13.6-2.5,20.3c-4.6,24-13.4,46.2-26.5,66.8c-19.8,31.1-46.3,54.8-79.5,70.8c-18.4,8.9-37.8,14.9-58.2,17.4

c-4.2,0.5-8.4,0.2-12.6,0.9c-0.7,0-1.5,0-2.2,0c-0.5-0.5-1-0.5-1.5,0c-1.2,0-2.5,0-3.7,0c-1.3-0.8-2.7-0.2-4-0.4

c-2.2,0.2-4.4-0.4-6.5,0.4c-0.7,0-1.5,0-2.2,0c-0.7-0.6-1.5-0.6-2.2,0c-1.5,0-3,0-4.5,0c-3.8-0.9-7.7-0.5-11.5-1

c-37.1-5-69.9-19.8-98.8-43.6c-4.2-3.5-7.9-7.5-12.1-11.2c-0.7,1.5-0.4,2.9-0.4,4.2c0,12.4,0,24.7,0,37.1c0,2.4-0.3,4.7-1.1,7

c-1.6,4.2-4.4,6.8-8.9,7.5C43,384,41,384,39,384z"
	/>
</svg>
