                <svg
                  version="1.1"
                  xmlns="http://www.w3.org/2000/svg"
                  x="0px"
                  y="0px"
                  width="36px"
                  height="36px"
                  viewBox="0 0 372 372"
                >
                  <g>
                    <path
                      fill="#b5b5b5"
                      d="M276,311.9c19.7,0,35.8-16.1,35.9-35.7c0.1-19.8-16-36.2-35.8-36.2c-19.8-0.1-36.1,16.1-36.1,35.9
		C240,295.7,256.2,312,276,311.9z M276.3,252c13.1,0.1,23.7,11,23.7,24.1c-0.1,13.2-11,24-24.3,23.9c-13.1-0.1-23.7-11-23.7-24.1
		C252,262.6,263,251.8,276.3,252z"
                    />
                    <path
                      fill="#b5b5b5"
                      d="M343.1,83.6c11.8-3.9,20.5-11.4,26.2-22.6c1.9-3.7,1.4-7.8,2.7-11.6c0-4.5,0-9,0-13.5c-0.9-4-0.5-8.3-2.2-12
		c-4.1-8.9-10.4-15.7-19-20.5c-4.4-2.5-9.3-2.3-14-3.5c-4.7,0-9.5,0-14.2,0c-3.6,1.1-7.5,0.7-10.9,2.4C298.4,9,289.8,19.3,287,33.9
		c-1.1,5.6-1.7,6.2-7.3,6.3c-1.7,0-3.5,0-5.2,0c-87.9,0-175.8,0-263.8,0c-2.2,0-4.5,0-6.7,0.1c-1.6,0.1-3,0.4-4,1.7
		c0,80,0,160,0,240c1.9,2.3,4.6,1.7,7,1.7c34.6,0,69.2,0,103.8,0c20.5,0,41,0,61.5,0c5.9,0,6.1,0.1,7,5.8
		c1.9,12.5,5.7,24.3,12.2,35.2c12.3,20.8,29.7,35.3,52.4,43.7c6.8,2.5,14,2.3,20.9,3.6c7.2,0,14.5,0,21.7,0c0.5-0.5,1.2-0.3,1.8-0.4
		c5.5-0.7,11.1-0.5,16.6-2.2c18.3-5.6,33.5-15.9,45.7-30.5c10.7-12.7,18.8-26.9,20.5-44c0.3-2.6,0.1-5.2,0.9-7.7c0-4.2,0-8.5,0-12.7
		c-0.6-1.7-0.6-3.5,0-5.2c0-1.2,0-2.5,0-3.7c-0.4-0.5-0.3-1.2-0.4-1.8c-0.6-6.2-0.8-12.4-2.8-18.4c-5.5-16.4-14.8-30.1-27.5-41.7
		c-2.6-2.4-3.7-5-3.7-8.5c0.1-34.7,0-69.4,0.1-104.1C337.7,85.4,337.9,85.4,343.1,83.6z M181.4,259.7L181.4,259.7c0,0.3,0,0.6-0.1,1
		c-0.1,0.7-0.3,1.5-0.4,2.2c-1.1,7.1-1.1,7.1-8.5,7.1c-51.9,0-103.7,0-155.6,0c-4.9,0-4.9,0-4.9-4.8c0-68.9,0-137.7-0.1-206.6
		c0-3.5,0.7-4.7,4.5-4.7c89.7,0.1,179.5,0.1,269.2,0c3.1,0,4.7,0.9,5.6,3.9c0.2,0.6,0.4,1.2,0.7,1.8c0.8,1.8,1.8,3.5,3,5.1
		c0.4,0.6,0.7,1.1,0.8,1.6c2.2,3.4,5.4,7.3,9.6,10c0.7,0,1.5,0.3,2.5,1c0.7,0.5,1.3,0.9,2,1.3c0.2,0.1,0.3,0.2,0.5,0.3
		c3.4,1.9,7.1,3.2,10.9,3.9c2,0.4,2.9,1.2,2.9,3.4c-0.1,34.5-0.1,69,0,103.5c0,3.7-1.6,2.2-3.3,1.4c-37.8-18.3-73.3-14.5-106.3,11.4
		c-2.2,1.7-4.2,3.6-6.3,5.7c0,0,0,0,0,0C185.3,232,181.4,259.7,181.4,259.7z M276,228c26.4,0,48,21.6,48,47.9
		c0,26.6-21.6,48.1-48.2,48.1c-26.3-0.1-47.8-21.7-47.8-48.1C228,249.5,249.6,228,276,228z M199.2,309.7
		c-12.8-31.5-8.9-60.7,12.3-87.2c13.3-16.6,30.9-26,51.9-29.5c1.2-0.2,2.5-0.2,3.7-0.4c2.4-0.5,3.1,0.5,3,2.8c-0.2,3,0,6,0,9
		c0,2.9-0.1,5.8,0,8.6c0.2,2.5-0.8,3.3-3.3,3.8c-25,4.8-41.4,19.3-48.6,43.8c-3.7,12.5-2.7,25,2.1,37.1c1,2.4,0.5,3.5-1.7,4.7
		c-5.2,2.8-10.3,5.7-15.2,8.8C201,312.5,200.1,312,199.2,309.7z M342.7,326.8c-13.1,16.8-30.1,27.5-51.1,31.6
		c-5.1,1-10.4,1.6-15.7,1.6c-27.3-0.8-49.7-11.5-66.7-33.1c-3-3.8-2.9-3.9,1.2-6.2c4.4-2.6,8.9-5,13.3-7.7c2.5-1.5,3.9-1.7,6.1,0.9
		c11.9,14.3,27.4,21.9,46.1,22c18.9,0,34.4-7.7,46.4-22.1c1.8-2.2,3-2.6,5.5-1.1c4.4,2.8,9,5.3,13.6,7.9
		C345.5,323.1,345.6,323.1,342.7,326.8z M360,272.8c-0.1,14.6-2.5,25.7-7,36.5c-1,2.4-1.9,3.4-4.5,1.7c-4.8-3.1-9.8-5.9-14.9-8.6
		c-2.4-1.3-2.6-2.5-1.7-5c12.7-33.7-6-70.1-40.7-79.4c-1.3-0.4-2.7-0.7-4-0.9c-5.2-1.1-5.2-1.1-5.2-6.6c0-4.9,0.2-9.7-0.1-14.6
		c-0.2-3,0.9-3.6,3.7-3.2c15.9,1.9,30.2,7.7,42.6,17.7C348.9,227.2,359.3,249.2,360,272.8z M329.9,72c-16.5,0-30-13.6-30-30.1
		c0-16.5,13.6-30,30.2-29.9c16.5,0.1,29.9,13.7,29.8,30.3C359.8,58.6,346.3,72,329.9,72z"
                    />
                  </g>
                  <g>
                    <path
                      fill="#cf7afe"
                      d="M51.6,78C64.3,77.9,77.1,78,89.8,78c11.6,0,23.2,0,34.8,0c7.4,0,7.2,0,7.5-7.6c0.1-3.7-1.2-4.5-4.7-4.5
		C103.7,66.1,80,66,56.3,66c-8.5,0-8.4,0-8.4,8.5C47.9,77.4,48.9,78.1,51.6,78z"
                    />
                    <path
                      fill="#cf7afe"
                      d="M51.6,102c12.7-0.1,25.5-0.1,38.2-0.1c11.5,0,23,0,34.4,0c7.8,0,7.6,0,7.8-7.6c0.1-3.7-1.2-4.5-4.7-4.5
		C103.7,90.1,80,90,56.3,90c-8.5,0-8.4,0-8.4,8.5C47.9,101.4,48.9,102.1,51.6,102z"
                    />
                    <path
                      fill="#cf7afe"
                      d="M52.3,126.1c23.8-0.1,47.7-0.1,71.5-0.1c8.3,0,8.1,0,8.2-8.3c0-3-1-3.8-3.9-3.7c-12.6,0.1-25.2,0.1-37.8,0.1
		c-11.6,0-23.2,0-34.8,0c-7.6,0-7.4,0-7.7,7.7C47.8,125.3,49,126.1,52.3,126.1z"
                    />
                    <path
                      fill="#cf7afe"
                      d="M52.6,150.1c23.7-0.2,47.4-0.1,71.1-0.1c8.5,0,8.4,0,8.4-8.5c0-2.9-1-3.6-3.7-3.5c-12.7,0.1-25.5,0.1-38.2,0.1
		c-11.6,0-23.2,0-34.8,0c-7.4,0-7.2,0-7.5,7.6C47.8,149.3,49,150.1,52.6,150.1z"
                    />
                    <path
                      fill="#cf7afe"
                      d="M29.6,78c7.2,0,6.3,0.9,6.4-5.9c-0.1-6.6,0.8-6.1-5.1-6.1c-7.7,0-6.9-0.9-6.9,5.3C24,78.8,23.1,78,29.6,78z"
                    />
                    <path
                      fill="#cf7afe"
                      d="M30.5,90c-7.2,0-6.5-0.9-6.5,5.3c0,7.4-0.9,6.5,5.6,6.6c7-0.1,6.4,0.8,6.3-5.2C36,89.2,36.9,90,30.5,90z"
                    />
                    <path
                      fill="#cf7afe"
                      d="M29.9,114c-6.5,0.1-5.9-0.7-5.9,5.3c0,7.6-0.9,6.7,5.5,6.7c7.3,0,6.4,0.9,6.4-5.8
		C36,113.1,36.9,114.1,29.9,114z"
                    />
                    <path
                      fill="#cf7afe"
                      d="M30.7,138c-7.5,0-6.7-0.9-6.7,5.5c0,7.3-0.9,6.4,5.8,6.4c7,0,6.1,0.9,6.2-6.1C35.9,137.4,36.7,138,30.7,138z"
                    />
                    <path
                      fill="#cf7afe"
                      d="M152.5,161.9c-9.7,0.2-19.5,0.1-29.2,0c-2.7,0-3.3,1-3.3,3.5c0.1,29.7,0.1,59.4,0,89.1c0,2.5,0.7,3.5,3.3,3.5
		c9.7-0.1,19.5-0.2,29.2,0c2.9,0,3.6-1,3.5-3.7c-0.1-14.7-0.1-29.5-0.1-44.2c0-14.9-0.1-29.7,0.1-44.6
		C156.1,162.9,155.4,161.9,152.5,161.9z M139.6,246.1c-7.6-0.3-7.6-0.1-7.6-7.5c0-9.6,0-19.2,0-28.8c0-10.7,0.1-21.5-0.1-32.2
		c0-2.7,0.7-3.7,3.5-3.7c8.5,0,8.5-0.1,8.5,8.4c0,19.7-0.1,39.4,0.1,59.1C144.1,244.9,143.3,246.2,139.6,246.1z"
                    />
                    <path
                      fill="#cf7afe"
                      d="M60,228.4c0-9.1,0-18.2,0-27.3c0-2.2-0.6-3.1-3-3.1c-10,0.1-20,0.1-29.9,0c-2.5,0-3.2,0.9-3.2,3.3
		c0.1,17.8,0.1,35.7,0,53.5c0,2.8,1.1,3.3,3.5,3.3c9.7-0.1,19.5-0.1,29.2,0c2.7,0,3.4-0.9,3.4-3.5C59.9,245.8,60,237.1,60,228.4z
		 M45.2,246c-9.2,0.4-9.2,0.5-9.2-8.7c0-8,0.1-15.9,0-23.9c0-2.6,0.8-3.4,3.4-3.4c8.7-0.1,8.7-0.2,8.7,8.6c0,3.1,0,6.2,0,9.3
		c0,5.1-0.1,10.2,0,15.3C48.1,245.2,47.3,245.9,45.2,246z"
                    />
                    <path
                      fill="#cf7afe"
                      d="M108,233.9c0-6.9-0.1-13.7,0-20.6c0-2.3-0.4-3.4-3.1-3.4c-10,0.1-20,0.1-29.9,0c-2.2,0-3.1,0.6-3.1,3
		c0.1,14,0.1,27.9,0,41.9c0,2.5,0.9,3.2,3.3,3.2c9.9-0.1,19.7-0.1,29.6,0c2.8,0,3.3-1.1,3.3-3.6C107.9,247.6,108,240.7,108,233.9z
		 M95.9,243.4c-0.3,5-4.4,2.1-6.7,2.4c-1.7,0.2-5.2,1.9-5.2-2.4c0-3.2,0-6.5,0-9.7c0-3.1-0.4-6.3,0.1-9.3c0.7-4.7,4.5-1.9,6.9-2.2
		c1.7-0.2,4.9-1.7,5,2.2C96,230.7,96.2,237.1,95.9,243.4z"
                    />
                    <path
                      fill="#cf7afe"
                      d="M204.1,190.6c0.2-3.9-1-4.9-4.8-4.7c-9.2,0.3-18.5,0.2-27.7,0c-2.8,0-3.6,0.8-3.6,3.6
		c0.1,21.6,0.1,43.2,0,64.9c0,2.8,0.8,3.9,3.6,3.6c2.5-0.2,5,0,7.5-0.1c1.6-0.1,2.4,0.5,2.4,1.7l0,0c0,0,3.9-27.7,26.6-51.4
		c0,0,0,0,0,0c-1.3,1.3-2.6,2.6-4.1,3.9C204,204.5,203.7,197.6,204.1,190.6z M185.6,244c-0.9,2-2.2,2-3.9,1.9
		c-2.2-0.1-1.7-1.8-1.7-3.1c0-7,0-14,0-20.9s0.1-14,0-20.9c0-2.2,0.7-3,3-3.1c9.1-0.3,9-0.4,9,8.6c0,2.6-0.3,5.3,0.1,7.8
		C193.6,225.1,189.9,234.6,185.6,244z"
                    />
                    <path
                      fill="#cf7afe"
                      d="M295.6,66.4c0.2,1-0.3,1.8-1.3,2.8c-10.9,10.8-21.8,21.7-32.6,32.6c-1.2,1.3-2.4,1.9-4.2,1.2
		c-3.6-1.4-7.4-1.4-11,0c-1.7,0.6-2.8,0.3-4-1c-1.3-1.4-2.6-2.8-4-4c-3.9-3.3-6.5-6.4-4.9-12.5c1.8-6.7-2.8-14-9.2-17.3
		c-6.7-3.5-13.4-3-19.4,1.7c-6,4.7-8.4,11.1-6.3,18.6c0.7,2.6,0.3,4.1-1.6,5.9c-8.4,8.2-16.7,16.5-24.9,24.9
		c-1.7,1.7-3.1,2.2-5.5,1.5c-7.9-2.3-16.1,1.1-20.3,8.2c-4.1,7.1-2.9,15.9,2.9,21.7c5.8,5.7,14.4,6.9,21.4,2.9
		c7.3-4.1,10.8-12.4,8.4-20.5c-0.7-2.3-0.2-3.6,1.4-5.2c8.5-8.3,16.9-16.7,25.2-25.2c1.7-1.7,3.1-2.4,5.5-1.5
		c3.2,1.3,6.7,1.1,9.9-0.1c2-0.7,3.3-0.3,4.6,1.2c1.3,1.5,2.8,2.9,4.2,4.2c3.5,3.1,6,5.9,4.3,11.7c-1.9,6.7,2.6,14,8.9,17.5
		c6.3,3.5,14.2,3,19.7-1.6c5.9-4.9,8.4-11.2,6.2-18.7c-0.7-2.6-0.1-4.1,1.6-5.8c10.6-10.4,21.1-21,31.5-31.6c1-1,1.9-1.6,2.8-1.6
		C301.1,73.7,297.9,69.7,295.6,66.4z M161.9,143.9c-3.3,0-5.9-2.8-5.9-6c0-3.3,2.8-5.9,6-5.9c3.3,0,5.9,2.8,5.9,6
		C167.9,141.3,165.2,144,161.9,143.9z M215.8,89.9c-3.3-0.1-5.9-2.8-5.8-6.1c0.1-3.3,2.8-5.9,6.1-5.8c3.3,0.1,5.9,2.8,5.8,6.1
		C221.9,87.4,219.1,90,215.8,89.9z M251.8,125.9c-3.3-0.1-5.9-2.8-5.8-6.1c0.1-3.3,2.8-5.9,6.1-5.8c3.3,0.1,5.9,2.8,5.8,6.1
		C257.8,123.4,255.1,126,251.8,125.9z"
                    />
                  </g>
                </svg>
