              <svg
                version="1.1"
                xmlns="http://www.w3.org/2000/svg"
                x="0px"
                y="0px"
                width="66px"
                height="67px"
                viewBox="0 0 314 322.5"
              >
                <g>
                  <path
                    fill="#010101"
                    d="M311.1,310.8c-9.4-22-18.9-43.9-28.2-66c-1.7-4.1-4.2-5.8-8.7-5.8c-18.3,0.2-36.6,0.2-55,0
		c-4.3-0.1-5,1.4-5.1,5.3c-0.1,4.3,0.8,5.6,5.4,5.6c16.7-0.3,33.3,0,50-0.2c3.2,0,4.7,0.9,5.8,3.9c1.8,5,4.1,9.8,6.2,14.7
		c6.2,14.5,12.4,28.9,18.7,43.8c-95.7,0-190.8,0-286.4,0c0.4-1.1,0.7-1.8,1-2.5c8-18.8,16.2-37.5,24-56.4c1.2-2.9,2.9-3.4,5.6-3.4
		c16.7,0.1,33.3-0.1,50,0.1c3.9,0.1,5.6-0.6,5.4-5c-0.2-3.7,0-5.9-5.1-5.8c-18.3,0.4-36.6,0.3-55,0.1c-4.5,0-7,1.7-8.7,5.8
		c-6.9,16.6-13.9,33.1-21.1,49.5C6.7,301.6,4.4,309.2,0,316c0,1,0,2,0,3c0.7,2.9,2.6,3.9,5.4,3.5c101,0,202.1,0,303.1,0
		c2.8,0.4,4.7-0.7,5.4-3.5c0-1,0-2,0-3C312.3,314.7,311.9,312.6,311.1,310.8z"
                  />
                  <path
                    fill="#010101"
                    d="M269,296.7c-74.6,0-149.3,0-223.9,0c-0.8,0-1.7-0.1-2.5,0c-2.8,0.3-3.1-0.8-2.1-3.2c3.2-8.4,6.5-16.7,9.5-25.2
		c0.9-2.5,2.2-3.2,4.7-3.2c10.3,0.1,20.7-0.2,31,0.2c5.1,0.2,3.4-3.2,3.5-5.6c0.1-2.5,0.9-5.1-3.6-5c-12,0.4-24,0.2-36,0.1
		c-4.2-0.1-6.3,1.6-7.7,5.5c-4.4,12.4-9.2,24.6-13.8,36.9c-2.7,7.3-1,9.8,6.8,9.8c40.7,0,81.3,0,122,0c41,0,82,0,123,0
		c7.1,0,9-2.7,6.5-9.4c-4.7-12.6-9.5-25.2-14.1-37.8c-1.3-3.5-3.3-5-7-5c-12.2,0.1-24.3,0.3-36.5-0.1c-4.6-0.1-3.8,2.5-3.6,5
		c0.1,2.4-1.6,5.7,3.5,5.6c10.2-0.3,20.3,0,30.5-0.2c3-0.1,4.4,0.8,5.4,3.7c2.6,7.5,5.6,14.9,8.4,22.4
		C274.8,296.7,274.8,296.7,269,296.7z"
                  />
                </g>
                <g>
                  <path
                    fill="#CD7AF7"
                    d="M125.9,197.8c-2.6,0.1-5.9-1.3-5.8,3.7c0.2,14.8,0.2,29.7,0,44.5c0,5.1,3.5,3.6,6.2,3.9
		c3.3,0.4,4.8-0.5,4.7-4.3c-0.3-7.2-0.1-14.3-0.1-21.5c0-7.5-0.2-15,0.1-22.5C131.2,197.3,128.6,197.7,125.9,197.8z"
                  />
                  <path
                    fill="#CD7AF7"
                    d="M187.6,249.9c2.7-0.3,6.3,1.2,6.2-3.9c-0.1-13.1-0.2-26.3,0-39.4c0.1-5-3.3-3.4-5.8-3.6
		c-2.7-0.2-5.3-0.5-5.1,3.8c0.3,6.5,0.1,13,0.1,19.5s0.2,13-0.1,19.5C182.8,249.4,184.4,250.2,187.6,249.9z"
                  />
                  <path
                    fill="#CD7AF7"
                    d="M172.9,260.1c0-5.8-0.1-11.6,0-17.5c0.1-4.8-3.4-3.4-6-3.6c-2.4-0.1-5-0.6-4.9,3.5c0.2,11.6,0.2,23.3,0,34.9
		c-0.1,4.1,2.5,3.7,4.9,3.5c2.4-0.2,6.1,1.7,6-3.3C172.8,271.8,172.9,265.9,172.9,260.1z"
                  />
                  <path
                    fill="#CD7AF7"
                    d="M172.9,210.7c0-5.1,0.1-10.3,0-15.4c-0.2-5.1-4.3-2.7-6.8-3.1c-2.4-0.4-4,0.2-4,3.3c0.2,9.9,0.2,19.9,0,29.9
		c-0.1,5,3.4,3.3,5.8,3.5c2.7,0.2,5.4,0.6,5.1-3.8C172.6,220.3,172.9,215.5,172.9,210.7z"
                  />
                  <path
                    fill="#CD7AF7"
                    d="M148,192.1c-2.5,0.5-6.7-2-6.9,3.1c-0.2,8.5-0.2,16.9,0,25.4c0.1,5.2,4.3,2.7,6.8,3.2c2.4,0.4,4.2-0.1,4-3.3
		c-0.2-4.1-0.1-8.3-0.1-12.5c0-4.2-0.2-8.3,0.1-12.5C152.1,192.4,150.5,191.6,148,192.1z"
                  />
                  <path
                    fill="#CD7AF7"
                    d="M151.9,268.2c0-3-0.3-6,0.1-9c0.5-4.3-1.9-4.5-5.1-4.3c-2.8,0.2-6.1-0.9-5.8,4.1c0.3,5.8,0.3,11.6,0,17.4
		c-0.2,4,1.4,4.5,4.9,4.7c4.7,0.3,6.7-1.1,6.1-6C151.6,272.9,151.9,270.5,151.9,268.2z"
                  />
                  <path
                    fill="#CD7AF7"
                    d="M146.3,244.9c4.1-0.2,6.6-0.9,5.5-5.6c1-4.1-0.6-5.7-4.9-5.5c-3.6,0.2-6.3,0-6,5.1
		C141.2,242.9,141.6,245.1,146.3,244.9z"
                  />
                  <path
                    fill="#CD7AF7"
                    d="M125.9,259.9c-4,0-6,0.7-5.9,5.4c0.1,4.4,1.3,5.7,5.7,5.7c4.5,0,6.2-1.3,5.1-5.9
		C132,260.9,130,259.9,125.9,259.9z"
                  />
                  <path
                    fill="#CD7AF7"
                    d="M188,259.8c-5.1-0.3-5,2.2-5.1,5.9c-0.2,4.3,1.2,5.9,5.4,4.9c4.6,1,5.5-1.2,5.7-5.4
		C194.1,260.5,192,260.1,188,259.8z"
                  />
                  <path
                    fill="#CD7AF7"
                    d="M214.1,113.3c0-7.8-0.3-8.3-8-8.5c-2.9-0.1-4.1-1.4-5-3.8c-1-2.4-1.3-4.3,1.1-6.1c1.8-1.4,3.4-3.2,3.7-5.7
		c0.1-1.9-1-3.1-2.2-4.3c-3.8-3.8-7.5-7.6-11.3-11.3c-4.4-4.4-5.9-4.4-10.3-0.1c-1.9,1.9-3.5,3.1-6.5,1.8c-3-1.3-3.8-3-3.7-6.1
		c0-5.7-1.8-7.3-7.6-7.3c-5,0-10,0-15,0c-5.1,0.1-7,1.8-7,6.9c0,3.1-0.4,5.2-3.8,6.5c-3.4,1.4-5-0.3-6.8-2.3
		c-3.1-3.4-6.1-3.5-9.3-0.1c-3.8,4-7.7,7.9-11.7,11.7c-3.5,3.3-3.1,6.4,0.2,9.3c2.5,2.2,3.5,4.2,2,7.7c-1.5,3.3-3.7,3.3-6.5,3.2
		c-4.7-0.3-6.6,2-6.5,6.6c0.2,5.3,0.2,10.7,0,16c-0.2,4.8,2.2,6.7,6.6,6.5c3-0.1,5.1,0.2,6.6,3.6c1.6,3.6-0.2,5.1-2.2,7.2
		c-3.6,3.8-3.6,5.8,0.2,9.7c3.6,3.7,7.2,7.4,10.9,11c3.6,3.5,6.1,3.4,9.9,0c1.7-1.5,2.5-4.2,6.1-2.6c3.2,1.5,4.4,3.3,4.3,6.8
		c-0.1,5.2,2,7.1,7.3,7.2c4.7,0.1,9.3,0,14,0c6.5,0,8.3-1.6,8.2-8.3c-0.1-3.5,2-4.4,4.4-5.7c2.8-1.5,3.8,0.3,5.3,1.8
		c4.4,4.5,6.7,4.4,11.3,0c3.4-3.4,6.9-6.8,10.2-10.3c3.8-3.9,3.8-5.9,0.2-9.7c-2-2.1-3.7-3.6-2.2-7.2c1.5-3.5,3.7-3.6,6.6-3.5
		c4.5,0.2,6.8-1.9,6.6-6.6C214,122.7,214.1,118,214.1,113.3z M201.1,123.9c-9.3,2.1-15,15.5-9.8,23.3c2.2,3.3-0.3,4-1.6,5.5
		c-1.4,1.6-2.6,2.8-4.8,0.7c-3.1-2.9-6.9-2.9-10.7-1.1c-5.8,2.7-12.5,4.1-13.4,12.3c-0.3,2.4-3.4,1-5.2,1.3
		c-1.9,0.3-2.3-0.9-2.8-2.6c-1.6-5.7-12.2-12.7-18.2-12.2c-1.8,0.2-3.8,0.5-5,1.9c-2.3,2.5-3.8,1.4-5.6-0.6
		c-1.6-1.7-2.9-2.8-1.1-5.6c4.9-7.5-1-21-9.9-23c-3.1-0.7-2.9-2.5-2.9-4.7c0-2.2-0.1-3.8,3.1-4.4c9-1.8,14.5-16,9.4-23.7
		c-0.7-1.1-2-2-0.5-3.4c1.6-1.4,2.7-3.4,4.7-4.1c0.4,0.2,0.7,0.3,1,0.5c7.1,6.5,13.4,1.1,19.8-1.4c3.1-1.2,4.9-4.2,5.2-7.5
		c0.3-3.2,2.3-3,4.5-3.1c2.1,0,3.5,0.1,4.2,2.9c2.6,9.7,15.5,15,24,9.6c3.4-2.1,3.9,0.8,5.5,2c1.6,1.1,2.3,2.2,0.8,4.4
		c-5.4,7.8,0.2,21.7,9.7,23.8c3,0.7,2.6,2.3,2.7,4.3C204,121.2,204.3,123.2,201.1,123.9z"
                  />
                  <path
                    fill="#CD7AF7"
                    d="M308.1,61.5c0-6.2,0-12.3,0-18.5c0-6-1-7.1-6.9-7.1c-3.5,0-7,0.2-10.5,0c-4.4-0.2-10.1,2-12.9-1
		c-2.6-2.7-0.6-8.3-0.8-12.6c0-0.2,0-0.3,0-0.5c-0.1-5.2-1.7-6.8-7-6.8c-9.2-0.1-18.3,0-27.5,0c-5.6,0-7.4,1.8-7.5,7.5
		c-0.1,6.5,0,13,0,19.5c0,14.9,0,14.9,14.7,14.9c0.3,0,0.7,0,1,0c4-0.6,5.4,0.8,5.5,5.1c0,4.3-1.4,5.7-5.4,5.1c-0.8-0.1-1.7,0-2.5,0
		c-6,0.1-7.9,1.7-8,7.6c-0.2,7.2-0.1,14.3,0,21.5c0.1,5.5,2.4,7.7,8.1,7.7c5.5,0.1,11,0,16.5,0c11.8,0,11.9,0,12.1-11.8
		c0-3.5,1.3-4.2,4.4-4.1c6.7,0.2,13.3,0.1,20,0c5.2-0.1,6.7-1.6,6.8-6.9C308.1,74.5,308.1,68,308.1,61.5z M256,42.9
		c0.2,4.8-3.5,2.8-5.7,3.1c-2.3,0.3-4.8,0.4-4.5-3.3c0.2-2.5,0-5,0-7.5c0-10.1,0-10.1,10.2-10.1c1.5,0,3,0,4.5,0
		c6.5,0,6.5,0.1,6.4,6.7c0,3-1,4.3-4,4.1C258,35.6,255.9,38.2,256,42.9z M261.9,93c-1,0.2-2,0-3,0c-8,0-8,0-8-7.8c0-0.8,0-1.7,0-2.5
		c0.1-2.2-0.9-5.1,2.7-5.3c3.8-0.2,2.1,3,2.3,4.8c0.4,3.8,2.4,5.6,6.1,5.8c1.9,0.1,4.8-1.1,4.7,2.6C266.7,94.3,263.8,92.7,261.9,93z
		 M293.9,77.2c-3.8-0.2-7.7,0-11.5,0c-4,0-8-0.1-12,0c-2.4,0.1-3.7-0.6-3.6-3.4c0.1-8.2,0.1-16.3,0-24.5c0-2.7,1.2-3.4,3.6-3.3
		c8,0.1,16,0.1,24,0c3-0.1,3.6,1.2,3.6,3.9c-0.1,7.8-0.2,15.7,0,23.5C298.1,76.5,296.8,77.4,293.9,77.2z"
                  />
                  <path
                    fill="#CD7AF7"
                    d="M72.2,82.9c-6.5,0.1-13,0-19.5,0c-6,0-12,0-18,0c-7.1,0-7.9,0.8-7.9,7.6c0,6.7-0.1,13.3,0,20
		c0,2.6-0.8,3.6-3.4,3.5c-4-0.1-8-0.1-12,0c-3.5,0.1-5.6,1.8-5.5,5.6c0.1,10.2,0,20.3,0,30.5c0,3.6,2.1,5.7,5.6,5.7
		c10,0.1,20,0.1,30,0c3.9,0,5.7-2.2,5.7-6.1c0-3.5,0.2-7-0.1-10.5c-0.3-3.6,1.2-4.5,4.6-4.4c6.5,0.2,13,0.1,19.5,0.1
		c5.7,0,7.7-1.9,7.7-7.4c0.1-12.7,0-25.3,0-38C78.9,85,76.8,82.8,72.2,82.9z M32.8,145.1c-2.1-0.2-4.3,0-6.5,0
		c-10.3,0-10.3,0-10.3-10.5c0-1.3,0-2.7,0-4c0-6.1,2.7-8,8.6-6.4c2.3,0.6,2.2,2.2,2.1,3.9c-0.3,4.6,1.8,7.1,6.4,6.8
		c5.3-0.4,3.5,3.4,3.8,6C37.4,144.2,36.1,145.5,32.8,145.1z M64.4,124.2c-8-0.1-16-0.1-24,0c-2.5,0-3.5-0.8-3.5-3.5
		c0.1-8,0.1-16,0-24c0-2.8,0.8-3.9,3.7-3.8c4,0.2,8,0,12,0c4,0,8,0.1,12,0c2.5-0.1,3.6,0.8,3.5,3.4c-0.1,8-0.1,16,0,24
		C68.2,123.2,67.3,124.3,64.4,124.2z"
                  />
                  <path
                    fill="#CD7AF7"
                    d="M142.8,41c9.5,0,19,0,28.4,0c4.5,0,6.8-2.1,6.7-6.7c0-9.3,0-18.6,0-27.9c0-2.6-0.3-5-3-6.4c-12,0-24,0-36,0
		c-2.6,1.3-3,3.8-3,6.4c0,9.3,0,18.6,0,27.9C136,38.9,138.2,41,142.8,41z M157.7,9.9c9.5,0,9.5,0,9.5,10.4c0,10.5,0,10.5-10.3,10.5
		c-10,0-10,0-10-9.9C146.8,9.9,146.8,9.9,157.7,9.9z"
                  />
                  <path
                    fill="#CD7AF7"
                    d="M44,67c7.5,0.1,15-0.2,22.5,0.1c5,0.2,7.1-2.4,7.2-6.8c0.2-7.8,0.2-15.7,0-23.5c-0.1-3.8-2.2-6.1-6.4-6
		c-4,0.1-8,0-12,0c-4,0-8,0.1-12,0c-4.5-0.2-6.3,2.1-6.3,6.4c0,7.7,0,15.3,0,23C37,65.2,38.9,67,44,67z M47.2,47.1
		c0-7.3-0.7-6.1,8.1-6.2c7.7,0,7.8,0,7.7,9.1c-0.1,8,1.2,6.7-9,6.8C45.7,56.9,47.2,57.1,47.2,47.1z"
                  />
                  <path
                    fill="#CD7AF7"
                    d="M261.1,171.7c0-3.5,0-7,0-10.5c0-3.4-1.7-5.3-5.2-5.3c-6.8,0-13.6-0.1-20.4,0c-3.6,0.1-5.4,2.2-5.5,5.7
		c-0.1,6.5-0.1,13,0,19.4c0,3.8,2.1,5.8,5.9,5.9c6.5,0.1,13,0,19.4,0c3.9,0,5.8-1.9,5.7-5.8C261.1,178,261.1,174.9,261.1,171.7z
		 M251.1,171c-0.2,3.6,0.1,6.4-5.1,6c-3.9-0.3-6.2-0.6-6-5.4c0.2-4,0.7-6.7,5.4-5.4C249.7,165.2,251.3,166.7,251.1,171z"
                  />
                  <path
                    fill="#CD7AF7"
                    d="M156.6,88c-17,0.1-30.5,14.1-30.8,31.4c-0.2,14.3,10.6,31,31.1,31.1c20,0.1,31.9-16.3,31.2-31.4
		C188,101.7,174.1,87.9,156.6,88z M157.2,140c-11.6,0.1-21-9.2-21.1-20.8c-0.1-11.1,10-21.2,21-21.1c10.9,0.1,20.8,9.9,20.9,20.8
		C178,130.5,168.7,139.9,157.2,140z"
                  />
                </g>
              </svg>
