              <svg
                version="1.1"
                xmlns="http://www.w3.org/2000/svg"
                x="0px"
                y="0px"
                width="69px"
                height="62px"
                viewBox="0 0 334.4 296"
              >
                <path
                  d="M334,255.1c0-43.1,0-86.3,0-129.4c0.1,0,0.2,0,0.3,0c-0.7-9-6.6-14.7-16.7-16.1c-11.5-0.1-23,0-34.5,0
	c-9.3,0-10.7,1.6-9.6,10.9c0.1,1.2,0.3,2.3,1,3.3c0.1,0.1,0.2,0.2,0.3,0.3c0.1-0.1,0.1-0.3,0.2-0.4c12.7,0,25.3,0,38,0
	c6.9,0,8.9,2.1,8.9,9c0,38.5,0,76.9,0,115.4c0,6.8-2.1,9-9,9c-18.5,0-37,0.1-55.5-0.1c-4,0-7,1.2-9.7,4.1
	c-5.5,5.8-11.4,11.2-16.9,17c-1.9,2-3.1,2.1-5,0c-5.5-5.8-11.3-11.3-16.9-17c-2.7-2.8-5.7-4.1-9.7-4.1c-18.3,0.1-36.6,0.1-55,0.1
	c-7.5,0-9.4-2-9.4-9.5c0-2.7,0.3-5.4-0.1-8c-0.6-4.2,1.3-4.8,5-4.8c17,0.2,34,0.1,51,0.1c14.7,0,22.4-7.7,22.4-22.5
	c0-18.5,0-37,0-55.5c0,0,0,0,0,0c-0.1-0.1-0.2-0.2-0.3-0.3c-4.3-1.6-8.6-1.6-13,0.1c-1.8,2.1-1.4,4.7-1.4,7.2c-0.1,15.5,0,31,0,46.5
	c0,8.4-1.8,10.2-10.3,10.2c-17.2,0-34.3,0.1-51.5,0c-5.4,0-9.7,1.6-13.3,5.5c-3.9,4.1-8,8-12,12c-4.8,4.8-4.9,4.8-9.8-0.2
	c-4-4-8.1-7.9-12-12c-3.5-3.8-7.7-5.5-12.9-5.4c-8.2,0.2-16.3,0.1-24.5,0c-9.7,0-19.3,0.1-29-0.1c-6.2-0.1-8.3-2.3-8.6-8.5
	c-0.1-1.7,0-3.3,0-5c0-29.6,0-59.3,0-88.9c0-6.7-0.1-13.3,0-20c0-3.4,0.9-6.3,4.4-7.7c1.8-1,3.8-0.8,5.8-0.8c9.3,0,18.5,0,27.8,0
	c9.7,0,11.2-1.8,9.9-11.5c-0.1-1-0.4-1.9-0.9-2.8c-1-1.1-2.3-1.5-3.6-1.5c-13.4-0.2-26.9-0.9-40.3,0.3c-10.9,0.9-17,8-17.1,17.8
	c0,42.3,0,84.7,0,127c-0.5,6.9,3,11.3,8.8,14.4c4,2.2,8.3,3.3,12.9,3.3c16-0.1,32,0.1,48-0.1c4.7-0.1,8.3,1.3,11.5,4.7
	c5.5,5.8,11.1,11.5,17,16.9c6.1,5.6,10,5.5,16-0.2c1.8-1.7,3.2-3.9,5.5-4.9c4.3,13.6,11,18.5,25.4,18.5c12.5,0,25-0.1,37.5,0
	c19.5,0.2,13-2.4,27.2,11.2c4.8,4.6,8.7,10.1,14.7,13.3c2,0,4,0,6,0c2.9-0.9,5.3-2.7,7.4-4.8c4.6-4.8,9.6-9.2,14-14.2
	c3.8-4.2,8-5.7,13.6-5.6c16.3,0.3,32.6,0.2,49,0c11.1-0.1,18.6-6.7,19.4-16.4L334,255.1z"
                />
                <path
                  fill="#101010"
                  d="M0,94c0.3-0.1,0.5-0.3,0.8-0.4C0.9,108.6,1,123.7,1,138.9C1,166.9,1,195,1,223c-0.3,0-0.7,0-1,0
	C0,180,0,137,0,94z"
                />
                <g>
                  <path
                    fill="#CD7AF7"
                    d="M106,49.1c1.5,0.1,3,0.1,4.5,0.1c19,0,37.9,0,56.9,0c10.6,0,21.3,0,31.9,0c9.5,0,19,0,28.5,0
		c3.9,0,6.6-1.8,6.9-5.7c0.3-4.1-2.3-6.4-6.2-7.2c-1.1-0.2-2.3-0.1-3.5-0.1c-38.1,0-76.2,0-114.3,0c-2,0-4,0-5.9,0.7
		c-3.1,1.1-4.8,3.2-4.5,6.4C100.6,46.4,102.5,48.7,106,49.1z"
                  />
                  <path
                    fill="#CD7AF7"
                    d="M226.8,109.8c-28.8,0-57.6,0-86.3,0c-0.8,0-1.7,0-2.5,0.1c-3.5,0.4-5.4,2.6-5.7,5.9c-0.3,3.1,1.5,5.3,4.5,6.4
		c1.9,0.7,3.9,0.7,5.9,0.7c13.5,0,26.9,0,40.4,0c14,0,27.9,0,41.9,0c4,0,7.8-0.5,9.4-4.9C236.1,113.4,232.7,109.9,226.8,109.8z"
                  />
                  <path
                    fill="#CD7AF7"
                    d="M194,86c5.5,0,8.2-2.3,8.1-6.6c0-4.3-2.7-6.4-8.3-6.4c-28.3,0-56.7,0-85,0c-5.1,0-8.5,2.6-8.6,6.3
		c-0.1,3.9,3.5,6.7,8.8,6.7c14,0,28,0,42,0C165.3,86,179.6,86,194,86z"
                  />
                  <path
                    fill="#CD7AF7"
                    d="M106.6,109.8c-4.1,0-6.1,2.4-6.5,6.1c-0.3,3.4,3.2,6.7,6.7,6.7c3.6,0,6.8-3.1,6.8-6.7
		C113.7,112.3,110.8,109.8,106.6,109.8z"
                  />
                  <path
                    fill="#CD7AF7"
                    d="M228.6,73c-3.6-0.1-6.8,2.9-6.6,6.6c0.2,3.9,2.5,5.9,5.9,6.4c3.5,0.1,6.9-3.2,7-6.3
		C234.9,76.6,231.7,73.1,228.6,73z"
                  />
                  <path
                    fill="#CD7AF7"
                    d="M275.5,114.4v-8.5c0-0.1,0-0.2,0-0.3c0-1.5,0-3,0-4.5c0-26.8,0.1-53.6,0-80.4C275.4,9.1,269.7,2.1,259,0
		C198,0,137,0,76,0c-7,0.5-11.4,4.5-14.4,10.6c-1.6,3.4-2.2,6.9-2.2,10.6c0,10.1,0,20.3,0,30.4h0V74c0.1,1.4,0.4,2.8,1.4,4
		c0,3.2-0.1,6.3,0.2,9.5c0.2,2-0.3,3-1.5,3.4V98c0,0.6,0,1.2,0,2c0,12.8-0.1,25.7,0.1,38.5c0.2,13.1,9,21.9,22,21.9
		c16.5,0.1,33,0.1,49.5-0.1c4.7-0.1,8.3,1.3,11.5,4.7c6,6.3,12.1,12.4,18.4,18.4c4.3,4,8.6,3.9,12.9,0.1c1.9-1.6,3.5-3.6,5.4-5.2
		c6.8-6.2,12.2-14.1,20.8-18.4c4.4-0.6,8.7-0.6,13.1,0c1.5,1.6,3.6,1.8,5.6,1.5c12.1-1.6,24.2-0.6,36.3-0.9
		c10.3-0.3,19.1-8.1,20.2-18.4c0.2-1.4,0.3-2.8,0.4-4.3v-6.1c-0.1-1.7-0.3-3.3-0.6-5c-0.1-2.8-0.2-5.6-0.4-8.4
		C274.3,116.3,274.6,115.1,275.5,114.4z M251.5,146.1c-18.2,0-36.3,0.1-54.5-0.1c-4,0-7,1.1-9.8,4c-5.5,5.8-11.4,11.3-16.9,17
		c-2.1,2.2-3.6,2.2-5.7,0c-5.7-5.9-11.6-11.5-17.3-17.4c-2.5-2.6-5.3-3.7-8.9-3.6c-18.5,0.1-37,0.1-55.5,0c-6.9,0-9-2-9-8.8
		c0-38.5,0-77,0-115.5c0-6.8,2.1-8.8,9-8.8c28.2,0,56.3,0,84.5,0c28,0,56,0,84,0c7.6,0,9.5,1.9,9.5,9.3c0,38.2,0,76.3,0,114.5
		C261,144.2,259.1,146.1,251.5,146.1z"
                  />
                </g>
              </svg>
