<svg
	version="1.1"
	xmlns="http://www.w3.org/2000/svg"
	x="0px"
	y="0px"
	width="36px"
	height="36px"
	viewBox="0 0 360 360"
>
	<defs></defs>

	<path
		d="M358,72.3c-8.6-30.9-27.6-52.8-56.9-65.8c-9-4-18.4-6-28.2-6.5c-6.2,0-12.5,0-18.7,0c-0.2,0.8-0.9,0.7-1.5,0.7

c-5.6,0.5-11.1,1.8-16.5,3.4c-37.2,11.3-64,44.1-67.6,82.8c-0.2,2.6-1.3,2.9-3.6,3.2c-9,1.3-16-1.3-21.2-8.8

c-0.3-0.4-0.7-0.7-1.1-1.1c-6.8-6.8-6.7-6.7-13.3,0.2c-1.3,1.4-1.5,2.2,0,3.5c2,1.7,3.7,3.7,6.1,6c-9.6,0-18.2-0.2-26.8,0

c-32,0.7-59.5,27.8-60.6,59.9c-1.3,36.6,26.9,65.9,63.5,66.1c17.4,0.1,34.8,0.6,52.1-0.2c9.9-0.5,17.2,1.9,23.6,9.7

c6.3,7.6,6.8,7.1,13.4-0.1c1.3-1.4,1.2-2.1-0.1-3.3c-2-1.8-3.8-3.7-6.1-5.9c1.2-0.1,1.6-0.2,1.9-0.2c37.6,0,75.2,0,112.9,0

c2.6,0,5.2,0.4,7.8,1c15.7,4,26.4,19.2,24.8,35.1c-1.7,16.6-15.5,29.5-32.1,29.8c-13.9,0.2-27.8-0.7-41.6,0.3

c-10,0.7-17.1-2.3-23.5-9.9c-6.4-7.5-6.8-7.1-13.4,0.4c-1.1,1.3-1.1,1.9,0.1,3c2,1.8,3.9,3.7,6.5,6.2c-2.2,0-3.4,0-4.6,0

c-26.9,0-53.7,0-80.6,0c-8.5,0-8.4,0-8.6,8.4c-0.1,2.8,0.5,3.7,3.6,3.7c28.5-0.1,57-0.1,85.5-0.1c1.3,0,2.7-0.4,3.9,0.4

c-0.4,0.4-0.6,0.7-0.8,1c-6.6,6.8-6.5,6.7,0.5,13.3c1.4,1.3,2.1,1.2,3.3-0.1c4.1-4.2,8.4-8.3,12.4-12.5c1.5-1.6,3-2.2,5.2-2.2

c17.6,0.1,35.2,0.2,52.9,0c23.5-0.3,43.2-20.3,43.6-43.8c0.4-25.5-19.6-46-45.1-46.1c-36.6-0.1-73.2,0-109.9,0c-1.3,0-2.7,0.4-4-0.4

c0.4-0.4,0.6-0.7,0.8-1c1.9-2.2,5.9-4,5.6-6.5c-0.3-2.4-3.9-4.3-5.8-6.5c-1.4-1.6-2.3-1.5-3.8,0c-4,4.3-8.3,8.3-12.4,12.5

c-1.3,1.3-2.6,2-4.5,2c-21.5-0.1-43,0-64.5-0.1c-2.2,0-4.5-0.3-6.7-0.6c-23.6-3.4-41.8-22.8-43.6-46.5

c-1.8-23.9,13.3-45.8,36.3-52.7c12.6-3.8,25.5-1.4,39-2.3c-0.8,1-1.1,1.3-1.4,1.6c-1.9,2.2-5.9,3.9-5.5,6.5c0.4,2.4,3.9,4.2,5.9,6.5

c1.5,1.8,2.5,1.3,3.8-0.2c2.6-2.7,5.6-5.1,7.9-8c4-5.3,9-7,15.5-6.4c6.4,0.5,6.4,0.1,7.3,6.5c5.8,44.1,40.9,78.2,85.2,83

c47.3,5.1,91.6-26.1,103-72.4c1-4.2,1.1-8.5,2.8-12.5c0-6.7,0-13.5,0-20.2C359.2,81.6,359.3,76.9,358,72.3z M273.8,179.3

c-45.8,4.9-85.7-25.7-92.9-71.1c-1-6.2-1-6.2,5.2-6.2c3.2,0,6.5,0.1,9.7,0c1.9-0.1,2.5,0.5,2.8,2.4c4.5,29.5,24.5,50.6,53.2,56.5

c36.1,7.4,73.1-19.3,77.4-55.8c4.2-35.8-17.9-66.6-52.9-73.9C239.9,23.7,203.2,50,198.7,87c-0.3,2.3-0.9,3.2-3.4,3.1

c-4.9-0.2-9.7-0.1-14.9-0.1c3.3-42.2,36.5-75.1,78.2-77.9c41.5-2.7,78.8,25.7,87.7,66.8C356.5,126.6,322.1,174.2,273.8,179.3z

M243.5,111.5c6.6,6.9,6.5,6.9,13.3,0.1c3.5-3.5,7.1-7,10.6-10.6c3.5-3.6,3.6-6.5,0.1-10.1c-5.1-5.2-10.3-10.2-15.3-15.4

c-1.4-1.5-2.4-1.9-3.8-0.1c-1.9,2.5-6.3,4.1-5.7,7.1c0.5,2.5,4.2,4.3,7.2,7.1c-13.8,0-26.5,0-39.6,0c3-19.5,12.9-34,30.7-42.4

c37-17.4,78.3,10.2,76.9,51.2c-0.9,26.8-23.3,49.7-50.2,51.4c-27.5,1.7-52.6-17.9-56.9-44.4c-0.4-2.6-0.3-3.7,2.9-3.6

c11.6,0.2,23.2,0.1,34.8,0.1c0.2,0.3,0.4,0.6,0.6,0.8c-1.9,1.7-3.8,3.5-5.7,5.2C241.8,109.3,242.2,110.2,243.5,111.5z"
	/>

	<path
		d="M127.1,281.7c-38.8-21.3-77.5-42.6-116.3-63.9c-5.2-2.8-7-2.5-10.8,1.9c0,1.5,0,3,0,4.5c1,2.6,1.7,5.2,2.8,7.7

c3.9,9,7.7,18.1,11.7,27.1c1.3,2.9,1,5-1,7.5c-3.6,4.4-6.9,9.2-10.4,13.7c-1.3,1.7-2.4,3.4-3.1,5.5c0,1.5,0,3,0,4.5

c0.7,1.9,1.6,3.6,2.9,5.2c3.3,4.3,6.4,9,10,13.1c2.8,3.2,2.7,6,1.1,9.8C9.1,329.4,3.8,340.2,0,351.7c0,1.5,0,3,0,4.5

c0.5,2,1.7,3.3,3.7,3.7c1.5,0,3,0,4.5,0c0.7-1.3,2.1-1.5,3.3-2.2c38.5-21.2,77-42.4,115.6-63.6c2.5-1.4,4.7-2.9,4.8-6.1

C132,284.8,129.7,283.1,127.1,281.7z M82.4,270.8c-0.1,0.2-0.2,0.4-0.4,0.6c-17.2-4-34.4-8-51.6-12c-1.5-0.3-2.3-1-2.9-2.5

c-2.8-6.8-5.7-13.5-9.1-21.2C40.3,247.7,61.3,259.2,82.4,270.8z M18.4,340.3c3.3-7.7,6.1-14.3,8.9-21c0.6-1.3,1.2-2.4,2.7-2.7

c17.3-4,34.7-8.1,52.3-11.5C61.4,316.7,40.3,328.2,18.4,340.3z M58.7,297.7c-9.9,2.3-19.9,4.5-29.8,7c-1.9,0.5-2.9,0.1-4-1.4

c-3.2-4.5-6.5-8.9-9.9-13.2c-1.2-1.5-1.4-2.5-0.1-4.1c3.5-4.4,6.8-8.9,10.1-13.4c0.9-1.2,1.6-1.8,3.3-1.4

c23.2,5.6,46.5,11,69.7,16.5c0,0.3,0,0.5,0,0.8C85,291.5,71.8,294.6,58.7,297.7z"
	/>
</svg>
