<svg
	version="1.1"
	xmlns="http://www.w3.org/2000/svg"
	x="0px"
	y="0px"
	width="36px"
	height="36px"
	viewBox="0 0 384 384"
>

	<path
		d="M384,172.5c-0.7-4.1-0.6-8.4-2-12.5c-5.2-16-14.8-28.5-29.4-36.9c-3.1-1.7-3.6-3.4-2.7-6.9c7.6-29.4,0.8-54.9-22.5-74.7 c-20.1-17-43.4-21.2-68.5-13c-3.9,1.3-6.2,0.7-8.8-2.1c-8.3-9-18.4-15.7-29.7-20.4C212.2,2.6,203.8,0.5,195,0c-6.2,0-12.5,0-18.7,0 c-5.6,0.8-11.3,1.1-16.8,2.9c-23.9,8-42.3,22.5-54,45.1c-1.3,2.4-2.7,3.5-5.6,3c-7.2-1.3-14.4-1.2-21.6,0.2 C46,57.3,23.7,85,24.6,117.8c0.1,2.4-0.6,3.9-2.4,5.4c-3.5,3-6.8,6.2-9.7,9.9C5.3,142.6,0.8,153,0,165c0,1.2,0,2.5,0,3.7 c0.6,2.5,0.6,5,0,7.5c0,1.7,0,3.5,0,5.2c1.2,0.4,0.7,1.5,0.9,2.2c4.9,23.9,18.6,40.4,41.4,49.2c3.2,1.2,4.9,2.6,5.9,6 c9.4,31.1,40,51.7,72.3,48.9c2.4-0.2,3.5,0.5,4.7,2.4c21.7,34.2,68.6,40,98,12.1c1.7-1.6,2.9-1.9,5.1-0.9c12.2,5.3,25,7.2,38.1,5 c32.2-5.4,54.3-28.1,59.3-60.4c0.4-2.4,1.3-3.3,3.7-3.6c26.6-3.8,47.8-23.8,53.2-50c0.3-1.6,0-3.5,1.4-4.8c0-3,0-6,0-9 c-0.6-1.5-0.6-3,0-4.5C384,173.5,384,173,384,172.5z M370.9,183.4c-3,24.6-19.7,42.6-43,46.2c-2.1,0.3-4.2,0.5-6.3,0.6 c-5.8,0.3-7.8,2.4-8.1,8c-1.1,22.8-11.9,39.5-32,50.1c-8.1,4.3-16.9,6-23.3,6c-12.3-0.1-21.2-2.4-29.6-7c-4.9-2.7-6.9-2.2-10.7,2 c-24.9,27.7-67,22.4-84.4-10.6c-1.9-3.6-4.4-5.1-8.5-4.4c-26.5,4.5-50.4-9.6-61-30.5c-2.4-4.7-4.2-9.6-5.2-14.8 c-0.7-3.7-2.7-5.5-6.3-6.5C31.4,217,17.8,203.5,13.9,182c-4-21.3,3.8-38.8,21.5-51.5c3.7-2.7,4-5.9,3.5-9.8 C36.1,96.3,51,73.4,74.6,66.2c9.8-3,19.7-3,29.5-0.1c5.7,1.6,7.9,0.6,10.2-4.9c12.7-30.5,41.4-49.4,74.2-48.3 c22.8,0.8,41.6,10.3,56.2,27.9c4.8,5.8,5.9,6.1,12.6,3c21.7-10.2,47.5-5.7,64.7,11.3c17,16.8,21.8,42.6,12.1,64.3 c-3.3,7.3-2.4,9.5,5,12.5C359.8,140.2,373.4,162.3,370.9,183.4z" />
	<path
		d="M63.8,359.2c-0.7-9.8-8.5-18.2-18.9-19.9c-3.2-0.5-6.5-0.3-9.7-0.3c-10.5,0-19.6,7.4-21.8,17.6c-2.3,10.5,2.9,21,12.5,25.4 c1.6,0.7,3.2,1.3,4.8,1.9c5.2,0,10.5,0,15.7,0c0.3-0.8,1-0.6,1.5-0.8C58.6,379.6,64.6,370.4,63.8,359.2z M38.5,371.2 c-6.8,0-12.8-4.4-12.9-9.5c-0.1-4.9,5.6-9.4,12.3-9.7c0.5,0,1,0,1.5,0.1c6.9,0.6,11.9,4.8,11.7,9.8 C50.9,366.9,45.2,371.1,38.5,371.2z" />
	<path
		d="M127.7,324.5c-1.6-11.1-7.8-19-18.5-22.3c-11.4-3.5-22.3-2.1-31.1,6.8c-9.5,9.6-10,22.8-1.3,33.1 c5.8,6.9,13.4,10.1,22.7,9.7c2.9,0.1,6-0.1,9.1-1C120.1,347.5,129.3,335,127.7,324.5z M114.7,328.4c-1.4,5.4-6.4,9.9-11.9,10.5 c-1.2,0.1-2.5,0.1-2.8,0.1c-2.8,0-4.7,0-6.5-0.5c-5.5-1.7-10.2-7.3-10.3-12.1c-0.1-5,4.7-10.8,10.5-12.3c5.2-1.4,10.4-1.2,15.1,1.9 C113.3,319,115.8,324.3,114.7,328.4z" />
	<path
		d="M236.9,159.7c0-8.7-0.2-17.5,0-26.2c0.3-15.5,12.2-28.9,27.1-30.7c16.6-2.1,31.2,7.4,35.6,23.1c0.7,2.7,1.2,5.4,1.2,8.1 c-0.1,3.8-2.6,6.6-6.1,6.8c-3.4,0.2-6.4-2.5-6.6-6.2c-0.2-2.3-0.4-4.5-1.2-6.6c-3.2-8.9-11.8-13.9-21.4-12.5 c-8.7,1.3-15.6,9.2-15.7,18.3c-0.1,17.5-0.2,35,0,52.5c0.1,10.2,8.6,18.4,18.9,18.4c10.2,0.1,18.8-7.9,19.3-18 c0.2-3.9-0.1-7.8,0.1-11.6c0.1-2.1-0.8-2.5-2.6-2.4c-3.4,0.1-6.8,0.1-10.1,0c-3.7-0.2-6.3-2.6-6.4-6c-0.2-3.5,2.3-6.5,6.2-6.7 c6.5-0.2,13-0.2,19.5,0c3.4,0.1,6.1,2,6.1,5.4c0.1,9.1,1.2,18.3-0.7,27.3c-3.2,15.6-18.4,26.3-34.5,24.7 c-15.5-1.5-28-14.7-28.4-30.3C236.7,178,236.9,168.9,236.9,159.7C236.9,159.7,236.9,159.7,236.9,159.7z" />

	<path
		d="M185.6,159.9c0-13.9-0.1-27.7,0.1-41.6c0-2.4-0.5-3.3-3.1-3.2c-4.9,0.2-9.7,0.1-14.6,0c-5-0.1-8-2.6-7.9-6.5 c0-3.8,2.9-6.3,7.7-6.3c16.2,0,32.5,0,48.7,0c4.7,0,7.6,2.6,7.5,6.5c-0.1,3.8-3,6.3-7.7,6.3c-5,0.1-10,0.1-15,0 c-1.9,0-2.9,0.2-2.9,2.6c0.1,28.2,0.1,56.5,0,84.7c0,1.8,0.5,2.3,2.3,2.3c5.1-0.1,10.2-0.1,15.4,0c4.9,0,8,2.6,7.9,6.5 c-0.1,3.8-3,6.3-7.7,6.3c-16.1,0-32.2,0-48.4,0c-5,0-8-2.5-7.9-6.5c0.1-3.9,3.1-6.3,8.1-6.3c4.7,0,9.5-0.2,14.2,0.1 c2.6,0.1,3.3-0.6,3.3-3.2C185.5,187.7,185.6,173.8,185.6,159.9z" />

	<path
		d="M136.8,162.2c-1.9-1.8-2.5-2.4-0.1-4.4c9.7-8.6,13.2-22.3,8.6-34.1c-5-12.8-14.4-20.2-28.2-21c-8.5-0.5-17-0.2-25.5-0.2 c-6.3,0-8.3,2.1-8.3,8.3c0,16.4,0,32.7,0,49.1c0,16.7,0,33.5,0,50.2c0,5.2,2.3,7.5,7.5,7.5c8.4,0,16.7,0.1,25.1,0 c13.2-0.2,24.7-8.4,29.3-20.7C149.7,184.8,146.4,170.8,136.8,162.2z M98.5,115.2c5.6,0.2,11.2-0.1,16.8,0.1 c10.8,0.3,18.8,8.3,18.9,18.7c0.1,10.6-7.8,19.1-18.5,19.6c-5.9,0.3-11.7,0-17.6,0.1c-1.9,0-2.3-0.7-2.3-2.4c0.1-5.7,0-11.5,0-17.2 c0-5.4,0.1-10.7,0-16.1C95.9,116,96.3,115.1,98.5,115.2z M134.2,188.2c-1.1,9.1-9.1,16.3-18.4,16.5c-5.7,0.1-11.5,0-17.2,0.1 c-1.7,0-2.6-0.2-2.6-2.4c0.1-11.2,0.1-22.5,0-33.7c0-2.2,0.9-2.4,2.6-2.3c3,0.1,6,0,9.7,0c3.5,0.3,7.8-0.5,12,0.7 C129.6,169.8,135.4,178.4,134.2,188.2z" />
</svg>
