<svg
	version="1.1"
	xmlns="http://www.w3.org/2000/svg"
	x="0px"
	y="0px"
	width="36px"
	height="36px"
	viewBox="0 0 373.5 324"
>
	<defs></defs>

	<path
		d="M290.9,277.9c0,0.8,0,1.5,0,2.2c-0.2,3.8-2.2,6.1-5.6,6.2c-3.3,0.1-5.9-2-6-5.8c-0.3-5.9-0.6-11.7-1.7-17.5

c-6.8-38.4-39.7-69.5-78.5-74.3c-3.9-0.5-7.7-0.6-11.6-0.8c-4.3-0.2-6.7-2.4-6.6-6c0.1-3.7,2.5-5.7,6.8-5.7

c47.8-0.5,92.2,36.1,101,83.3C289.9,265.7,290.5,271.8,290.9,277.9z"
	/>

	<path
		d="M228.7,214.8c-3.1-2.2-5.7-1.2-8.5,0.9c-21.7,16.6-43.6,33-65.4,49.5c-10.7,8.1-15,19-12.1,32c2.9,13,10.7,22,24.2,25.3

c1.6,0.4,3.5,0,4.8,1.4c0.2,0,0.5,0,0.7,0c1.9-0.9,4.1,0.1,6.1-0.6c14-2.2,24-9.4,28.2-23.3c7.9-25.7,15.7-51.5,23.6-77.2

C231.3,219.8,231.7,217,228.7,214.8z M196.3,294.2c-2.6,9.6-7.9,15.2-17.2,17.4c-9.1,2.1-18.7-3-22.8-11.7c-4.1-8.7-2.3-19.3,5-24.8

c17.5-13.4,35.2-26.6,53.5-40.5C208.3,255,201.7,274.5,196.3,294.2z"
	/>

	<path
		d="M68.6,99.5c-0.9-2.8-3.1-3.8-5.6-4.2c-4.1-0.6-8.1-1.2-12.2-1.6c-2.4-0.2-4.1-1-5.1-3.5c-1.6-3.8-3.8-7.3-5.6-11

c-1.2-2.4-2.9-3.6-5.6-3.7c-2.7,0-4.4,1.2-5.6,3.6c-2,3.9-4.1,7.7-6,11.6c-0.8,1.6-1.8,2.5-3.6,2.7c-3.8,0.5-7.6,1.3-11.5,1.6

c-3.7,0.3-6.4,1.7-7.6,5.3c0,0.3,0,0.5,0,0.8c0.9,2.7,2.7,4.7,4.7,6.5c2.4,2.2,4.6,4.6,7.1,6.6c1.7,1.4,2,2.9,1.6,4.9

c-0.9,4.4-1.6,8.8-2.4,13.3c-0.4,2.4,0.1,4.5,2.2,5.9c2.1,1.4,4.3,1.6,6.7,0.3c3.7-2,7.6-3.7,11.3-5.8c2.3-1.3,4-1.1,6.2,0.1

c3.7,2.1,7.6,3.8,11.3,5.8c2.4,1.3,4.6,1,6.6-0.6c2-1.5,2.5-3.6,2-6c-0.8-4.4-1.5-8.9-2.5-13.2c-0.4-1.8-0.1-3,1.3-4.2

c3.3-2.8,6.5-5.9,9.8-8.8C68.2,104.3,69.4,102.3,68.6,99.5z M42.8,113c-1.1,3.3,0.7,6.6,0.6,10.7c-5.9-5.1-11.7-5.1-17.7-0.5

c3-7.7,0.5-13.1-5.7-17.8c8.3,0.6,12.8-3.4,14.8-11.1c2.3,7.3,6.4,11.7,14.7,10.5C47.8,108.5,43.8,109.6,42.8,113z"
	/>

	<path
		d="M365.5,95.1c-3.5-0.3-6.9-1.1-10.4-1.4c-2.4-0.2-3.8-1.2-4.8-3.4c-1.8-3.8-3.7-7.6-5.8-11.3c-2.8-4.8-8.3-4.6-10.9,0.2

c-2,3.7-4.1,7.4-5.8,11.3c-1,2.1-2.4,2.9-4.5,3.1c-4.2,0.4-8.4,1-12.6,1.6c-2.6,0.4-4.8,1.3-5.7,4.1c-0.9,2.8,0.4,4.8,2.4,6.6

c2.9,2.7,5.8,5.5,8.9,8c2.1,1.7,2.7,3.4,2,6.1c-1,3.8-1.4,7.8-2.2,11.8c-0.5,2.5-0.2,4.8,1.9,6.4c2.1,1.6,4.5,1.9,7,0.5

c3.6-2,7.4-3.6,11-5.6c2.3-1.3,4.2-1.4,6.5-0.1c3.5,2.1,7.3,3.7,11,5.6c2.3,1.2,4.5,1.3,6.7-0.2c2.2-1.5,2.7-3.7,2.2-6.3

c-0.8-4-1.4-8.1-2.2-12.1c-0.6-2.5-0.1-4.4,2-6.2c4-3.5,8-7,11.4-11.2c0-0.8,0-1.5,0-2.2C372.1,96.7,369.3,95.4,365.5,95.1z

M349,123.2c-6.6-4.8-12.7-4.5-19.2,0.1c3-7.8,1-13.5-6.7-17.7c4.5-1,8.2-0.5,11.2-2.2c3-1.7,3.1-5.7,5.4-8.5

c2.2,2.5,2.5,6.1,5.1,8.1c2.7,2.1,6.2,1.3,10.2,2.6C348.2,109.9,346,115.5,349,123.2z"
	/>

	<path
		d="M353,254.4c-7.8-48.9-31.9-87.9-72.8-115.6c-35-23.8-74.1-32.6-116.1-27.1c-42.8,5.6-78.4,25-106.4,57.7

C30.9,200.7,18,237.5,17.4,278.7c-0.1,5.7,1.8,7.7,7.6,7.7c12.7,0,25.5,0,38.2,0c6,0,7.8-1.7,7.8-7.8c0.3-28.8,9.9-54.1,29.3-75.2

c27.9-30.4,62.7-42.6,103.5-36.3c31.1,4.8,55.1,21.6,74,46.2c14.4,18.7,21.2,40.2,21.7,63.7c0.2,8.5,1.3,9.5,9.6,9.5c6,0,12,0,18,0

c6.9,0,13.7,0,20.6,0c5.2,0,7-1.9,7.1-7C354.9,271,354.4,262.7,353,254.4z M83.5,206.1c-14.2,19.7-22,41.8-23.4,66.1

c-0.1,2-0.7,2.5-2.6,2.5c-4.4-0.1-8.7,0-13.1,0c-4.1,0-8.3-0.1-12.4,0.1c-2.3,0.1-2.9-0.5-2.8-2.9c0.9-17.6,4.5-34.6,11-51

c5.2-13.2,12.2-25.4,20.8-36.7c1.4-1.9,2.3-2.3,4.1-0.4c5.9,6.1,11.9,12.1,18,18C84.7,203.4,84.8,204.3,83.5,206.1z M177.1,154

c-33.5,2.5-61.6,16.3-84.8,40.9c-7-7-13.9-14-20.9-20.9c-1.6-1.6,0-2.1,0.7-2.9c11.8-12.8,25.4-23.2,40.8-31.3

c20-10.5,41.3-16.5,64-17.9c2.6-0.2,3.4,0.3,3.4,3.1c-0.2,8.5-0.2,17,0,25.5C180.4,153.1,179.7,153.8,177.1,154z M276.5,193.3

c-19.2-20-42.4-32.8-69.8-37.8c-4-0.7-8.1-1.2-12.2-1.5c-2.1-0.2-2.6-0.9-2.6-2.9c0.1-8.5,0.2-17,0-25.5c-0.1-3.4,0.8-4.5,4.1-3.7

c0.7,0.2,1.5,0.1,2.2,0.2c40.2,2.6,73.6,19.7,101.7,48c1.5,1.5,1.4,2.3-0.1,3.8c-6.5,6.4-12.9,12.9-19.1,19.5

C278.9,195.4,278.1,195,276.5,193.3z M340,274.7c-8.5-0.1-17-0.2-25.5,0c-2.5,0-3.3-0.4-3.5-3.1c-1.3-19.3-6.5-37.5-16.3-54.3

c-2.2-3.8-4.7-7.3-7.2-10.9c-0.9-1.2-1.4-2.1,0-3.4c7.5-7,14.8-14.1,22.4-21.4c17.6,22.5,28.6,48.5,32.1,77.5

c0.5,4.1,0.6,8.2,1.2,12.3C343.6,274.2,342.5,274.7,340,274.7z"
	/>

	<path
		d="M297,55.2c-0.9-2.6-3-3.4-5.6-3.5c-3-0.2-6-0.8-8.9-0.8c-4.7,0-7.5-1.8-9-6.4c-1-3.2-3-6-4.4-9.1c-1.2-2.4-3.1-3.5-5.7-3.4

c-2.5,0-4.2,1.1-5.3,3.4c-2,4.1-4.2,8.2-6.1,12.4c-0.8,1.6-1.7,2.4-3.6,2.5c-4.2,0.3-8.4,1-12.7,1.3c-3.2,0.3-5,2.3-6.1,4.9

c-1,2.4,0.4,4.3,2.1,5.9c2.9,2.9,5.7,5.9,8.8,8.7c1.7,1.5,2.1,3.1,1.6,5.3c-0.9,4.5-1.7,9.1-2.5,13.3c-0.4,5,4.2,8.4,8.5,6.4

c4.3-2,8.5-4.2,12.6-6.5c1.6-0.9,2.8-0.9,4.4,0c3.9,2.2,7.9,4.2,11.9,6.3c3,1.6,5.9,0.7,8.5-0.9c2.3-1.5,2.1-4.1,1.7-6.5

c-0.7-4.3-1.4-8.6-2.3-12.9c-0.3-1.7,0.1-2.8,1.3-3.9c3.2-3,6.2-6.2,9.3-9.2C297.5,60.4,297.9,57.9,297,55.2z M273.1,79.4

c-10.2-3.5-10.2-3.5-19.6,0.1c2-7,0.3-12.7-6.2-16.7c3.7-1.6,7.5-0.7,10.3-2.9c2.9-2.2,3.2-6,5.7-9.1c2.4,7.2,6.8,11.5,15.2,11

C271.6,66.3,270.1,72.2,273.1,79.4z"
	/>

	<path
		d="M144.5,55c-0.8-2.4-2.9-3.1-5.4-3.3c-4.2-0.3-8.4-1.1-12.7-1.3c-2.1-0.1-3-1.1-3.8-2.8c-1.8-3.8-3.8-7.6-5.6-11.4

c-1.2-2.6-2.9-4.2-6-4.2c-3.1,0-4.7,1.8-5.9,4.4c-1.8,3.7-3.7,7.3-5.4,11.1c-0.9,1.9-1.9,2.9-4.1,3c-4.1,0.2-8.2,0.9-12.3,1.3

c-3.2,0.3-4.9,2.3-6.1,4.8c-1.2,2.5,0.5,4.3,2.1,5.9c2.9,2.9,5.8,5.9,8.8,8.7c1.6,1.5,2.2,3,1.7,5.2c-1,4.4-1.7,8.8-2.5,13.2

c-0.6,3.7,2.2,7.1,6.2,7.2c0.7,0.1,1.6-0.2,2.5-0.7c4.1-2.1,8.2-4.2,12.3-6.4c1.7-0.9,3-1,4.8,0c3.9,2.2,7.9,4.2,11.9,6.2

c2.9,1.5,5.7,0.6,8.2-0.9c2.5-1.5,2.2-4.2,1.8-6.8c-0.8-4.2-1.3-8.4-2.3-12.5c-0.5-1.9,0.1-3,1.4-4.2c3.2-3,6.2-6.2,9.3-9.3

C145.3,60.2,145.4,57.6,144.5,55z M120.3,79.6c-6.6-4.9-12.7-4.8-19.1,0.2c1.7-7.3,0.3-13.1-6.2-17.4c8.6,0.3,13.2-3.9,15.5-11.6

c2.6,7.4,7.3,11.4,15.6,11C119.3,66.2,117.6,72,120.3,79.6z"
	/>

	<path
		d="M220.4,23.7c-0.8-2.8-3.2-3.6-5.8-4c-3.8-0.6-7.6-1.3-11.5-1.5c-2.8-0.2-4.2-1.4-5.3-3.8c-1.6-3.5-3.5-6.9-5.3-10.3

c-1.3-2.6-3.2-4.1-6.2-4c-2.7,0-4.2,1.7-5.4,3.9c-1.9,3.8-4,7.5-5.8,11.3c-0.9,1.8-2,2.6-4,2.8c-4.2,0.4-8.4,1-12.6,1.7

c-2.4,0.4-4.7,1.2-5.5,3.9c-0.8,2.7,0.2,4.9,2.2,6.7c3.2,3,6.3,6,9.5,9c1.1,1,1.5,2,1.2,3.6c-1,4.9-1.8,9.8-2.5,14.2

c-0.3,2.8,0.5,4.7,2.6,5.9c1.9,1.1,3.8,1.4,6,0.2c4.1-2.4,8.4-4.4,12.5-6.7c1.6-0.9,2.8-0.9,4.4,0.1c3.8,2.3,7.8,4.4,11.7,6.6

c2.4,1.4,4.8,1.2,7-0.3c2.2-1.5,2.7-3.8,2.2-6.3c-0.6-3.4-1.1-6.9-1.9-10.3c-1-3.7-0.7-6.6,2.8-9c2.6-1.9,4.7-4.5,7.2-6.6

C220.2,28.7,221.2,26.5,220.4,23.7z M196.6,47c-6.5-4.5-12.6-4.9-19.1,0.1c2.5-7.5,0.8-13.3-5.8-17.7c7.7,0,12.9-2.9,14.4-11.3

c6.3,8.8,6.3,8.8,16.2,11.6C195.7,33.8,193.7,39.4,196.6,47z"
	/>

	<path
		d="M175.3,272.3c-9.3-0.1-17,7.5-17.1,16.8c0,9.3,7.5,16.9,16.8,16.9c9.4,0,16.9-7.6,16.9-16.9

C191.9,280,184.4,272.4,175.3,272.3z M174.9,294.5c-2.8-0.1-5.1-2.5-5-5.4c0.1-2.9,2.4-5.1,5.3-5c2.9,0.1,5.1,2.3,5,5.3

C180.1,292.3,177.7,294.6,174.9,294.5z"
	/>
</svg>
