                <svg
                  version="1.1"
                  xmlns="http://www.w3.org/2000/svg"
                  x="0px"
                  y="0px"
                  width="34px"
                  height="36px"
                  viewBox="0 0 353.4 372.9"
                >
                  <g>
                    <path
                      fill="#cf7afe"
                      d="M125.4,147.2c1.6,0.9,3.3,0.9,5.1,0.9c16.7,0,33.5,0,50.2,0c14.5,0,29,0,43.5,0c3,0,6,0.1,9,0
		c3.6-0.1,5.8-2.2,6-5.4c0.2-3.4-1.8-5.8-5.5-6.3c-0.7-0.1-1.5-0.1-2.2-0.1c-33.9,0-67.7,0-101.6,0c-1.1,0-2.2,0.2-3.3,0.4
		c-2.5,0.5-3.9,2.2-4.2,4.7C122,143.9,123.1,145.9,125.4,147.2z"
                    />
                    <path
                      fill="#cf7afe"
                      d="M235.9,282.4c-1.5-0.6-3.1-0.7-4.8-0.7c-33.6,0-67.2,0-100.8,0c-1.2,0-2.5,0.1-3.7,0.4
		c-2.5,0.5-3.9,2.2-4.2,4.6c-0.3,2.6,0.8,4.6,3.1,6c1.6,0.9,3.3,0.9,5.1,0.9c16.6,0,33.2,0,49.8,0c16.9,0,33.7,0,50.6,0
		c1.6,0,3.2,0,4.8-0.6c2.4-0.9,3.4-2.8,3.5-5.3C239.2,285.3,238.3,283.4,235.9,282.4z"
                    />
                    <path
                      fill="#cf7afe"
                      d="M127.2,118.8c1.1,0.2,2.2,0.1,3.4,0.1c16.7,0,33.5,0,50.2,0s33.5,0,50.2,0c1.1,0,2.3,0.1,3.4-0.1
		c3.1-0.6,4.8-2.5,4.9-5.7c0-3-1.4-5-4.5-5.5c-1.7-0.3-3.5-0.5-5.2-0.5c-32.5,0-65,0-97.4,0c-1.7,0-3.5,0.3-5.2,0.5
		c-3.4,0.5-4.6,2.8-4.5,5.8C122.4,116.4,124.3,118.2,127.2,118.8z"
                    />
                    <path
                      fill="#cf7afe"
                      d="M234.8,311.1c-1.2-0.3-2.5-0.2-3.7-0.2c-16.7,0-33.5,0-50.2,0c-17.2,0-34.5,0-51.7,0c-4.2,0-6.6,2-6.9,5.3
		c-0.2,3.3,2.4,6,6.4,6.5c0.9,0.1,1.7,0.1,2.6,0.1c33,0,65.9,0,98.9,0c1.8,0,3.5-0.1,5.2-0.6c2.8-0.9,4-2.9,3.8-5.7
		C239,313.6,237.5,311.7,234.8,311.1z"
                    />
                    <path
                      fill="#cf7afe"
                      d="M232.1,194.6c-34.2,0-68.4,0-102.6,0c-0.9,0-1.8-0.1-2.6,0.1c-4.2,0.8-6,5.5-3.4,9c1.5,2.1,3.7,2.3,6,2.3
		c17.1,0,34.2,0,51.3,0c17.3,0,34.7,0,52,0c3,0,5.2-0.9,6.1-3.8c0.8-2.4,0.1-4.7-1.9-6.4C235.6,194.5,233.9,194.6,232.1,194.6z"
                    />
                    <path
                      fill="#cf7afe"
                      d="M129,235.2c17.2,0,34.4,0,51.7,0c17.3,0,34.7,0,52,0c4.5,0,7.3-3.2,6.4-7.1c-0.9-3.6-3.5-4.3-6.9-4.3
		c-26.1,0.1-52.2,0-78.3,0c-8.5,0-17,0.1-25.5,0c-3.1,0-5,1.3-6,4.1C121.3,231.8,124.2,235.2,129,235.2z"
                    />
                    <path
                      fill="#cf7afe"
                      d="M69.5,180.5c-18.4-0.1-33.7,15.1-33.6,33.6c0,18.9,15,33.9,33.7,33.9c18.8,0,33.4-14.8,33.4-33.6
		C102.9,195.7,87.9,180.6,69.5,180.5z M69.3,236.8c-12.4,0-22.1-9.7-22-22c0.1-11.9,10-21.7,22.1-21.7c12.4,0,22.2,9.6,22.2,21.9
		C91.5,227.3,81.8,236.8,69.3,236.8z"
                    />
                    <path
                      fill="#cf7afe"
                      d="M69.5,161.4c21.6-0.2,34.2-18.3,33.4-33.7c0.7-18.1-15-33.8-33.3-33.6c-18.9,0.2-33.5,14.6-33.7,33.3
		C35.6,144.4,49.7,161.6,69.5,161.4z M69.4,105.5c12.1,0,22.1,10.1,22.1,22.3c0,12.1-10.1,22-22.3,21.9c-12-0.1-21.9-9.9-21.9-21.9
		C47.3,115.8,57.5,105.5,69.4,105.5z"
                    />
                    <path
                      fill="#cf7afe"
                      d="M69.4,268c-18.9,0-33.4,14.6-33.6,33.4c-0.2,15.9,13.2,33.9,33.5,33.9c21.3,0,34.5-17.9,33.6-33.9
		C102.8,282.6,88.3,268,69.4,268z M69.2,324.3c-12.1-0.1-22.1-10.2-22-22.3c0.1-12,10.3-22,22.5-21.9c11.9,0.1,21.8,10.1,21.8,22.1
		C91.4,314.3,81.3,324.4,69.2,324.3z"
                    />
                  </g>
                  <g>
                    <path
                      fill="#b5b5b5"
                      d="M273.8,44.7c-3-13-10.9-20.2-23.4-21.1c-1.3-0.5-2.7-0.3-4.1-0.3c-14.6,0-29.1,0-43.7,0
		c-1.6,0-3.2,0.3-4.8-0.3c-3-5.6-5-11.7-7.3-17.6c-1.2-3-2.8-4.8-6-5.1c-1.3-0.5-2.7-0.2-4.1-0.2c-29.9,0-59.8,0-89.7,0
		c-3.8-0.4-6.1,1.3-7.4,4.8c-1.6,4.4-3.5,8.8-5.3,13.2c-2,5-2.3,5.2-7.7,5.2c-15.3,0-30.7,0-46,0c-2.5,0-5,0-7.4,0.9
		C7.7,27.6,1.5,33.7,0,43.9c0,1,0,2,0,3c0.7,1.3,0.4,2.7,0.4,4c0,98.3,0,196.6,0,294.9c0,1.3,0.4,2.8-0.4,4c0,1,0,2,0,3
		c2.5,13.1,14.3,21.1,24.7,19.9c73.8,0,147.6,0,221.4,0c1.5,0,3,0.2,4.5-0.2c12.3-0.8,20.3-8.1,23.3-21.1c0.5-1.3,0.2-2.7,0.2-4.1
		c0-99.5,0-199,0-298.5C274.1,47.4,274.3,46,273.8,44.7z M81.4,44c4-9.8,8-19.6,11.9-29.5c0.8-2.1,1.8-2.9,4.1-2.8
		c26.9,0.1,53.7,0.1,80.6,0c2.2,0,3.4,0.7,4.2,2.7c4,10.2,8.1,20.4,12.3,30.6c1.4,3.5-1.1,2.8-2.8,2.8c-18,0-36,0-54,0
		c-17.9,0-35.7,0-53.6,0C79.9,47.8,79.9,47.8,81.4,44z M263.2,345.8c0,10.8-5,16-15.7,16c-73.2,0-146.4,0-219.7,0
		c-4.4,0-8.7-0.5-12.1-3.9c-2.7-2.8-3.8-5.9-3.8-9.8c0.1-27.6,0-55.2,0-82.8c0-21.9,0-43.7,0-65.6c0-49.2,0-98.5,0-147.7
		c0-3.3,0.4-6.5,1.8-9.5c2.3-4.9,6.5-7.3,11.7-7.3c14.6-0.1,29.2,0,43.9-0.1c2.4,0,2.8,0.7,1.9,2.8c-1.7,4-3.3,8.1-4.9,12.1
		c-2.2,5.6,0.1,9,6.2,9c31.7,0,63.5,0,95.2,0c11.5,0,23,0,34.5,0c7.2,0,9.3-3.1,6.4-9.6c-1.6-3.8-3-7.7-4.6-11.4
		c-0.7-1.7-0.3-2.2,1.5-2.2c15.1,0,30.2-0.1,45.4,0.1c6.7,0.1,11.9,5.6,12.3,12.3c0.1,1.1,0,2.2,0,3.4
		C263.2,149.6,263.2,247.7,263.2,345.8z"
                    />
                    <path
                      fill="#b5b5b5"
                      d="M353.3,176.3c0-35.7,0-71.5,0-107.2c0-8.2-5.6-14.8-13.7-16.2c-8.3-1.5-16.7-0.5-25-0.6
		c-12.3-0.2-19.8,7.5-19.8,19.8c0,70.1,0,140.2,0,210.3c0,2.6,0.5,4.8,1.6,7.2c3.3,7.2,6.5,14.6,9.7,21.9c4.1,9.5,8.1,19,12.3,28.5
		c1.1,2.4,2.7,4.7,5.8,4.5c2.9-0.2,4.9-1.8,6.2-4.7c6.1-14.3,12.3-28.6,18.8-42.8c3.1-6.7,4.4-13.5,4.3-20.9
		C353.1,242.7,353.3,209.5,353.3,176.3z M306.8,71.8c0.1-4.2,1.8-7,5.6-7.2c8.1-0.5,16.2-0.8,24.2,0.2c3.2,0.4,4.5,2.4,4.6,5.4
		c0.1,6.4,0,12.7,0.1,19.1c0,2.2-1,2.7-2.9,2.7c-4.9-0.1-9.7,0-14.6,0c-4.6,0-9.2-0.1-13.9,0c-2.2,0.1-3.2-0.5-3.1-2.9
		C306.9,83.3,306.7,77.5,306.8,71.8z M336.4,294.3c-4.1,9.2-7.9,18.5-12.2,28.6c-4.5-10-8.7-19.3-12.9-28.7c-1.1-2.4-0.2-3,2.2-2.9
		c7,0.1,14,0.1,21,0C337.1,291.4,337.5,292,336.4,294.3z M341.2,281.7h-34.5V100.8h34.5V281.7z"
                    />
                  </g>
                </svg>
