              <svg
                version="1.1"
                xmlns="http://www.w3.org/2000/svg"
                x="0px"
                y="0px"
                width="65px"
                height="61px"
                viewBox="0 0 313.5 292"
              >
                <g>
                  <path
                    fill="#CD7AF7"
                    d="M214.5,0c4,2.9,5.9,15,3,18.9c-1.2,1.6-2.8,2.3-4.8,2c-1.9-0.4-3.6-1.5-3.9-3.4c-0.7-4.6-0.6-9.2-0.1-13.9
		c0.3-2.1,2.5-2.4,3.8-3.6C213.2,0,213.9,0,214.5,0z"
                  />
                  <path
                    fill="#3A3A3A"
                    d="M313.5,280l-0.4,0.3l-0.5-0.1c0-5.8,0-11.7,0-17.5c0.3,0.1,0.5,0.2,0.8,0.3C313.5,268.6,313.5,274.3,313.5,280
		z"
                  />
                  <path
                    fill="#CE7BF7"
                    d="M297.1,102.8c-4.6-0.4-8.1-0.6-11.5-1.1c-2.9-0.5-4.9-2.5-4.7-5.6c0.2-3,2.4-5,5.4-4.9
		c3.8,0.1,7.6,0.6,11.3,1.4c2.7,0.6,4.4,2.6,3.9,5.5C301,101.2,299,102.6,297.1,102.8z"
                  />
                  <path
                    fill="#CE7BF7"
                    d="M151.4,27.9c1.6-0.1,2.9,0.5,4.1,1.5c2.3,2.1,4.8,4.1,7,6.3c2.2,2.2,3.1,4.8,0.6,7.4c-2.3,2.5-4.9,2.5-7.5,0.3
		c-2.6-2.3-5.3-4.6-7.8-7c-1.8-1.7-1.7-3.9-0.8-6C147.7,28.8,149.3,27.9,151.4,27.9z"
                  />
                  <path
                    fill="#CE7BF7"
                    d="M284.7,71c-4.2,0.4-5.9-0.8-6.8-3.3c-0.9-2.7,0.4-4.9,2.6-5.8c3.8-1.6,7.8-2.9,11.8-3.8
		c2.8-0.7,4.7,1.1,5.6,3.8c0.8,2.4-0.4,4.5-2.4,5.4C291.7,69.2,287.5,70.4,284.7,71z"
                  />
                  <path
                    fill="#CE7BF7"
                    d="M275.5,27.9c4.2,0,6.5,4,4.2,7.7c-2.4,3.8-6.3,6.3-9.8,8.9c-1.5,1.1-3.5,0.7-5.1-0.6c-1.5-1.2-2.5-2.6-2.2-4.7
		C263.1,36.1,272.4,27.9,275.5,27.9z"
                  />
                  <path
                    fill="#CE7BF7"
                    d="M252.5,13.4c-1.5,3.8-2.8,8.5-5.8,12.3c-1.5,1.8-3.9,2-5.9,0.9c-2.1-1.2-3.6-3.2-2.6-5.8
		c1.5-3.7,3-7.4,4.9-10.8c1.2-2,3.2-3.4,5.9-2.2C251.2,8.7,252.6,10.2,252.5,13.4z"
                  />
                  <path
                    fill="#CE7BF7"
                    d="M135.8,58c2.8,1,6.9,2.2,10.8,3.9c2,0.9,3.3,3.1,2.5,5.4c-0.8,2.5-2.8,4.3-5.6,3.8c-4.1-0.6-8.1-1.7-11.7-3.6
		c-2.1-1.1-3.5-3.1-2.5-5.8C130,59.2,131.7,57.8,135.8,58z"
                  />
                  <path
                    fill="#CE7BF7"
                    d="M130.7,102.9c-2.7-0.3-4.8-1.7-5.2-4.7c-0.4-2.9,1.1-4.9,3.8-5.5c3.7-0.8,7.5-1.3,11.2-1.5
		c2.7-0.1,4.8,1.4,5.2,4.3c0.5,3.2-1.3,5.2-4.1,5.9C138.2,102.2,134.6,102.4,130.7,102.9z"
                  />
                  <path
                    fill="#CE7BF7"
                    d="M188.7,21.2c0,3.3-1.1,5-3.5,5.6c-2.3,0.6-4.4,0-5.7-2.1c-2.1-3.6-4-7.3-5-11.4c-0.6-2.4,0.6-4.2,2.6-5.4
		c2.2-1.4,4.4-0.8,5.8,0.9C186.1,12.8,187.4,17.4,188.7,21.2z"
                  />
                  <path
                    d="M312.7,262.7c-3.3-8.9-7.7-12-17.2-12c-20.3,0-40.6-0.1-60.9,0.1c-3.5,0-5.7-0.3-5.1-4.7c0.5-3.3-1.2-6.1-3.4-8.5
		c-3.7-4-8.1-6.9-13.3-8.4c-14-4.2-28-8.4-42-12.5c-4.2-1.2-7.8-3.2-11.2-6.1c-16.6-14-33.6-27.2-53.2-36.8
		c-9.1-4.5-18.5-7-28.8-6.7c-10.6,0.4-21.3,0-32,0.1c-2.9,0-4.3-0.4-3.9-3.7c0.5-4.6-1.8-6.7-6.5-6.7c-9.7,0.1-19.3,0.1-29,0
		c-2.5,0-4.6,0.7-5.7,3.1c-0.7,1.8-0.4,3.6-0.4,5.4c0,37.6,0,75.3,0,112.9c0.2,4,3.1,5,6.2,5.1c9.7,0.4,19.3,0.3,29,0.1
		c3.3-0.1,6.4-1.6,6.9-4.8c0.9-6,4.7-6.4,9.4-6.1c2.5,0.2,5,0.4,7.4,0.9c33.9,5.9,67.4,14.4,101.6,18.7c47.3,0,94.7,0,142,0
		c7.7-2.6,10-5.6,10.5-13.3C312.8,273.3,313.4,268,312.7,262.7z M31.4,219.2c0,16-0.1,32,0.1,47.9c0,3.6-1.1,4.6-4.5,4.3
		c-5.4-0.5-12.7,2.3-15.7-1.1c-2.7-3-0.8-10.1-0.8-15.4c0-27.8,0.1-55.6-0.1-83.4c0-3.8,0.9-4.9,4.7-4.6c3.8,0.3,7.7,0.3,11.5,0
		c3.8-0.3,5.1,0.7,5,4.8C31.2,187.6,31.4,203.4,31.4,219.2z M288.9,281.9c-19.2,0-38.3,0-57.5,0c-12.2,0-24.3-0.4-36.5,0.1
		c-20.8,0.9-41.1-1.9-61.4-6.2c-24.1-5.1-48.3-9.5-72.5-14.2c-5.1-1-10.3-0.5-15.4-0.5c-2.8,0-4.1-0.4-4-3.7c0.2-25.5,0.1-51,0-76.5
		c0-2.6,0.7-3.4,3.3-3.4c13,0.1,26-0.1,39,0.1c8.8,0.2,16.3,4.3,23.7,8.5c17.2,9.6,32.7,21.7,47.6,34.5c2.6,2.2,5.3,3.8,8.6,4.7
		c15,4.4,29.9,9,44.9,13.5c9.6,2.9,12.6,8,10.3,17.6c-0.8,3.4-2.9,5-6.7,4.2c-15.3-3.2-30.6-6.3-46-9.2c-2.5-0.5-4.7-1.6-6.8-2.9
		c-10-5.7-19.9-11.4-29.9-17.1c-3.4-2-6.8-3-9,1.1c-2.1,3.8,0.5,6.1,3.7,7.9c10.9,6.1,21.7,12.3,32.5,18.5
		c5.7,3.3,12.1,3.4,18.3,4.7c11.2,2.5,22.5,4.5,33.8,6.8c8.9,1.8,13.7,0,18.7-7.5c1.1-1.6,2.2-2.1,4-2.1c21.5,0.1,43,0,64.5,0
		c4.6,0,6.5,2.3,6.5,6.8C302.9,281.9,302.9,281.9,288.9,281.9z"
                  />
                  <path
                    fill="#CD7AF7"
                    d="M245.2,127.1c5.7-4.3,10.2-9.6,13.5-15.9c9.9-18.8,9.8-37.7-1.6-55.5c-11.2-17.5-27.7-25.9-48.8-23.8
		c-21.4,2.1-38.4,16.7-44.8,37.9c-6,20,1.1,43.3,17.2,56.5c5.4,4.4,5.7,9.1,1,14.1c-6.7,7.1-6.1,18.1,1.9,23.5
		c3.2,2.2,4.1,4.4,4.1,8c-0.1,9.2,6.5,15.7,15.7,16c3.3,0.1,6.7,0,10,0c2.3,0,4.7,0,7,0c13.5,0,18.9-5.1,19.3-18.4
		c0.1-2.3,1-3.5,2.8-4.8c9.5-6.6,10.4-16.9,2.4-25.1C241.1,136,241.3,130.1,245.2,127.1z M226.8,176.3c-1.4,1-3,1.5-4.7,1.5
		c-5.8,0-11.6,0.1-17.4,0c-2.2,0-4.4-0.4-5.8-2.4c-1.6-2.2-1.8-4.8-1-7.1c0.8-2.2,3.2-1.1,4.9-1.2c3.6-0.2,7.3,0,10.9,0
		c3.5,0,7-0.1,10.4,0.1c1.8,0.1,4.4-1.3,5,1.6C229.8,171.5,229.3,174.4,226.8,176.3z M231.7,156.8c-6,0-12,0-18,0
		c-6.3,0-12.7,0-19,0c-3.6,0-7-0.9-7.1-5.2c-0.1-4.5,3.2-5.6,7.2-5.6c12.3,0.1,24.6,0,37,0c3.7,0,7.2,0.6,7.7,5.2
		C239.8,154.8,236.9,156.8,231.7,156.8z M237.3,120c-3.7,2.9-5.8,6.6-5.6,11.1c0.3,4.4-1.7,5-5.3,4.8c-4.3-0.2-8.7-0.1-13-0.1
		c-4.7,0-9.3-0.1-14,0c-2.9,0.1-4.2-0.6-4.2-3.8c0.1-5.5-2.6-9.5-6.9-13.1c-14.1-11.6-19.8-26.7-15.4-44.5
		c4.3-17.2,15.6-28.2,33.3-32c21.7-4.7,45,12.2,48.2,35C257.1,95.1,251.1,109.2,237.3,120z"
                  />
                  <path
                    fill="#CD7AF7"
                    d="M245.6,77.8c0.2,3-1.3,4.8-4,5.6c-2.7,0.8-4.9-0.6-5.6-2.9c-2.6-7.7-7.5-13.1-14.7-16.7
		c-2.2-1.1-3.2-3.4-2.1-6c1-2.4,2.9-3.8,5.5-3.5C232.2,55.2,245.3,69.9,245.6,77.8z"
                  />
                </g>
              </svg>
